<?xml version="1.0" encoding="utf-8"?>
<!-- Generator: Adobe Illustrator 21.1.0, SVG Export Plug-In . SVG Version: 6.00 Build 0)  -->
<svg version="1.0" id="Layer_1" xmlns="http://www.w3.org/2000/svg" xmlns:xlink="http://www.w3.org/1999/xlink" x="0px" y="0px"
   width="80px" height="80px" viewBox="0 0 80 80" enable-background="new 0 0 80 80" xml:space="preserve">
<linearGradient id="SVGID_1_" gradientUnits="userSpaceOnUse" x1="3" y1="79.0357" x2="23.3815" y2="79.0357">
  <stop  offset="0" style="stop-color:#292D33;stop-opacity:0"/>
  <stop  offset="0.1889" style="stop-color:#2C3036;stop-opacity:0.02"/>
  <stop  offset="0.3452" style="stop-color:#373A40;stop-opacity:0.03"/>
  <stop  offset="0.49" style="stop-color:#484C51;stop-opacity:0.04"/>
  <stop  offset="0.6292" style="stop-color:#606469;stop-opacity:0.05"/>
  <stop  offset="0.7621" style="stop-color:#808388;stop-opacity:0.06"/>
  <stop  offset="0.8881" style="stop-color:#A5A9AE;stop-opacity:0.08"/>
  <stop  offset="0.9977" style="stop-color:#CDD0D5;stop-opacity:0.1"/>
</linearGradient>
<rect x="3" y="78.07" fill="url(#SVGID_1_)" width="20.38" height="1.93"/>
<rect x="56.15" y="40.94" fill="#DEE0E4" width="11.92" height="39.06"/>
<polygon fill="#BABFC5" points="8.46,60.47 20.38,60.47 20.38,40.94 "/>
<path fill="#F8BA2D" d="M65.3,0.96c-6-2.57-12.94,0.22-15.51,6.21c-0.91,2.12-1.13,4.36-0.8,6.49l-0.01-0.01l2.99,18.84l15.58-11.08
  l-0.01-0.01c1.7-1.21,3.1-2.88,3.98-4.94C74.08,10.47,71.3,3.52,65.3,0.96z M62.76,13.22l-0.82,3.43l-2.22-2.74l-3.52,0.28
  l1.92-2.96l-1.35-3.26l3.41,0.91l2.68-2.29l0.19,3.52l3.01,1.84L62.76,13.22z"/>
<linearGradient id="SVGID_2_" gradientUnits="userSpaceOnUse" x1="72.8956" y1="13.2298" x2="49.3069" y2="17.3891">
  <stop  offset="0" style="stop-color:#FABB05"/>
  <stop  offset="0.37" style="stop-color:#FABA08;stop-opacity:0.7768"/>
  <stop  offset="0.6001" style="stop-color:#F8B510;stop-opacity:0.638"/>
  <stop  offset="0.7919" style="stop-color:#F6AC1F;stop-opacity:0.5223"/>
  <stop  offset="0.9618" style="stop-color:#F4A133;stop-opacity:0.4197"/>
  <stop  offset="0.9945" style="stop-color:#F39E38;stop-opacity:0.4"/>
</linearGradient>
<path fill="url(#SVGID_2_)" d="M65.3,0.96c-6-2.57-12.94,0.22-15.51,6.21c-0.91,2.12-1.13,4.36-0.8,6.49l-0.01-0.01l2.99,18.84
  l15.58-11.08l-0.01-0.01c1.7-1.21,3.1-2.88,3.98-4.94C74.08,10.47,71.3,3.52,65.3,0.96z M62.76,13.22l-0.82,3.43l-2.22-2.74
  l-3.52,0.28l1.92-2.96l-1.35-3.26l3.41,0.91l2.68-2.29l0.19,3.52l3.01,1.84L62.76,13.22z"/>
<linearGradient id="SVGID_3_" gradientUnits="userSpaceOnUse" x1="24.0346" y1="35.6758" x2="47.663" y2="35.6758">
  <stop  offset="0" style="stop-color:#34964F"/>
  <stop  offset="0.1326" style="stop-color:#349C50"/>
  <stop  offset="0.4621" style="stop-color:#34A452"/>
  <stop  offset="1" style="stop-color:#34A753"/>
</linearGradient>
<path fill="url(#SVGID_3_)" d="M47.13,27.39c-1.94-6.23-8.57-9.7-14.8-7.76c-6.23,1.94-9.7,8.57-7.76,14.8
  c0.69,2.2,1.97,4.05,3.6,5.45l-0.01,0l14.51,12.38l4.65-18.54l-0.02,0C47.81,31.7,47.8,29.53,47.13,27.39z M39.97,33.74L36.5,33.1
  l-2.49,2.5l-0.47-3.5l-3.14-1.6l3.18-1.52l0.55-3.48l2.43,2.55l3.48-0.56l-1.68,3.1L39.97,33.74z"/>
<rect x="20.38" y="40.94" fill="#CDD0D5" width="35.77" height="39.06"/>
<linearGradient id="SVGID_4_" gradientUnits="userSpaceOnUse" x1="62.1145" y1="80" x2="62.1145" y2="40.9357">
  <stop  offset="0" style="stop-color:#DADCE0;stop-opacity:0"/>
  <stop  offset="0.5546" style="stop-color:#D6D8DC;stop-opacity:0.3882"/>
  <stop  offset="1" style="stop-color:#CDCFD4;stop-opacity:0.7"/>
</linearGradient>
<rect x="56.15" y="40.94" fill="url(#SVGID_4_)" width="11.92" height="39.06"/>
<polygon fill="#EFF0F2" points="80,60.47 68.08,60.47 56.15,40.94 68.08,40.94 "/>
</svg>
