<?xml version="1.0" encoding="utf-8"?>
<!-- Generator: Adobe Illustrator 22.0.1, SVG Export Plug-In . SVG Version: 6.00 Build 0)  -->
<svg version="1.1" id="Layer_1" xmlns="http://www.w3.org/2000/svg" xmlns:xlink="http://www.w3.org/1999/xlink" x="0px" y="0px"
	 width="312" height="150" viewBox="0 0 312 150" enable-background="new 0 0 312 150" xml:space="preserve">
<g>
	<linearGradient id="SVGID_1_" gradientUnits="userSpaceOnUse" x1="160.45" y1="103.9538" x2="160.45" y2="64.1141">
		<stop  offset="0" style="stop-color:#FFFFFF"/>
		<stop  offset="0.54" style="stop-color:#FCFCFD"/>
		<stop  offset="0.8893" style="stop-color:#F4F4F6"/>
		<stop  offset="1" style="stop-color:#EFF0F2"/>
	</linearGradient>
	<path fill="url(#SVGID_1_)" d="M66.369,103.954c0,0,12.963-39.806,27.629-39.84c15.019-0.034,20.605,37.594,64.239,37.594
		c30.062,0,47.509-34.566,60.641-34.566s35.652,36.811,35.652,36.811H66.369z"/>
	<linearGradient id="SVGID_2_" gradientUnits="userSpaceOnUse" x1="156" y1="137.985" x2="156" y2="59.3336">
		<stop  offset="0" style="stop-color:#FFFFFF"/>
		<stop  offset="0.8333" style="stop-color:#F2F3F5"/>
		<stop  offset="1" style="stop-color:#EFF0F2"/>
	</linearGradient>
	<path fill="url(#SVGID_2_)" d="M52.086,74.646c22.652,0,38.389,38.104,56.648,38.104c23.12,0,31.372-53.416,59.634-53.416
		s38.499,40.433,62.22,40.433c18.617,0,23.322-20.163,41.753-20.163c14.601,0,24.903,16.937,29.772,25.188
		c6.58,11.151,9.887,33.194,9.887,33.194H0C0,137.985,22.919,74.646,52.086,74.646z"/>
	<g>
		<g>
			<linearGradient id="SVGID_3_" gradientUnits="userSpaceOnUse" x1="58.1133" y1="145.0061" x2="58.1133" y2="92.016">
				<stop  offset="0" style="stop-color:#FFFFFF"/>
				<stop  offset="0.6673" style="stop-color:#EAEBED"/>
				<stop  offset="1" style="stop-color:#DEDFE3"/>
			</linearGradient>
			<path fill="url(#SVGID_3_)" d="M67.759,97.291c-1.493,0-2.702,1.21-2.702,2.702v3.637c0,2.987-1.842,5.548-4.448,6.617V94.719
				c0-1.493-1.21-2.703-2.703-2.703c-1.493,0-2.703,1.21-2.703,2.703v29.948c-2.37-1.044-4.034-3.409-4.034-6.161v-7.917
				c0-1.493-1.21-2.702-2.702-2.702s-2.702,1.21-2.702,2.702v7.917c0,5.765,4.042,10.594,9.438,11.827v14.673h5.405v-29.121
				c5.628-1.24,9.853-6.26,9.853-12.255v-3.637C70.462,98.501,69.252,97.291,67.759,97.291z"/>
		</g>
	</g>
	<linearGradient id="SVGID_4_" gradientUnits="userSpaceOnUse" x1="214.7339" y1="55.9129" x2="214.7339" y2="27">
		<stop  offset="0" style="stop-color:#FFFFFF;stop-opacity:0.3"/>
		<stop  offset="0.0079" style="stop-color:#FEFEFE;stop-opacity:0.2992"/>
		<stop  offset="0.1988" style="stop-color:#E8EAEC;stop-opacity:0.2801"/>
		<stop  offset="0.4084" style="stop-color:#D9DBDF;stop-opacity:0.2592"/>
		<stop  offset="0.651" style="stop-color:#D0D3D7;stop-opacity:0.2349"/>
		<stop  offset="1" style="stop-color:#CDD0D5;stop-opacity:0.2"/>
	</linearGradient>
	<circle fill="url(#SVGID_4_)" cx="214.734" cy="41.456" r="14.456"/>
	<linearGradient id="SVGID_5_" gradientUnits="userSpaceOnUse" x1="268.2046" y1="58.4515" x2="268.2046" y2="29.2625">
		<stop  offset="0" style="stop-color:#FFFFFF;stop-opacity:0"/>
		<stop  offset="0.342" style="stop-color:#E8E9EC;stop-opacity:0.0684"/>
		<stop  offset="0.7342" style="stop-color:#D4D7DB;stop-opacity:0.1468"/>
		<stop  offset="1" style="stop-color:#CDD0D5;stop-opacity:0.2"/>
	</linearGradient>
	<path fill="url(#SVGID_5_)" d="M276.157,58.452c8.611,0,15.48-7.458,14.501-16.267c-0.753-6.778-6.296-12.216-13.086-12.855
		c-6.096-0.574-11.5,2.606-14.191,7.494c-1.118,2.031-3.428,2.985-5.68,2.434c-0.878-0.215-1.804-0.311-2.759-0.267
		c-4.989,0.226-9.096,4.369-9.279,9.36c-0.203,5.544,4.231,10.101,9.729,10.101H276.157z"/>
	<linearGradient id="SVGID_6_" gradientUnits="userSpaceOnUse" x1="85.4893" y1="72.9739" x2="85.4893" y2="28.8018">
		<stop  offset="0" style="stop-color:#FFFFFF;stop-opacity:0"/>
		<stop  offset="0.4552" style="stop-color:#E6E8EA;stop-opacity:0.091"/>
		<stop  offset="1" style="stop-color:#CDD0D5;stop-opacity:0.2"/>
	</linearGradient>
	<path fill="url(#SVGID_6_)" d="M105.264,58.452c5.009,0,9.053-4.129,8.914-9.169c-0.129-4.702-4.074-8.594-8.777-8.665
		c-0.668-0.01-1.318,0.054-1.945,0.184c-1.888,0.393-3.758-0.731-4.454-2.53c-2.145-5.54-7.519-9.47-13.817-9.47
		c-6.293,0-11.666,3.922-13.816,9.454c-0.67,1.724-2.471,2.747-4.298,2.464c-0.813-0.126-1.663-0.14-2.535-0.027
		c-4.027,0.525-7.262,3.836-7.687,7.875c-0.563,5.358,3.624,9.883,8.867,9.883H105.264z"/>
	<linearGradient id="SVGID_7_" gradientUnits="userSpaceOnUse" x1="248.5925" y1="145.0061" x2="248.5925" y2="99.8329">
		<stop  offset="0" style="stop-color:#FFFFFF"/>
		<stop  offset="0.6673" style="stop-color:#EAEBED"/>
		<stop  offset="1" style="stop-color:#DEDFE3"/>
	</linearGradient>
	<path fill="url(#SVGID_7_)" d="M262.577,111.728c-1.035-1.194-2.735-1.559-4.169-0.894c-1.252,0.581-2.208,1.653-2.642,2.963
		l-1.327,4.004c-0.952-0.528-2.033-0.836-3.173-0.836c-0.706,0-1.391,0.124-2.04,0.338l-0.475-2.922
		c-0.366-2.251-1.423-4.333-3.026-5.956l-0.531-0.538l1.369-2.769c0.393-0.794,0.597-1.669,0.597-2.555v-0.449
		c0-1.028-0.688-1.929-1.68-2.201c-0.96-0.263-1.98,0.128-2.519,0.965c-0.851,1.32-1.126,2.931-0.762,4.459l0.347,1.458
		c-0.514,0.036-1.025,0.192-1.484,0.482c-0.928,0.586-1.49,1.607-1.49,2.704l-2.583-0.937c-1.116-0.405-2.363,0.033-2.981,1.048
		c-0.434,0.713-0.324,1.63,0.266,2.219c0.418,0.418,1.014,0.605,1.596,0.502l3.916-0.696c0.39,1.967,1.31,3.804,2.685,5.3
		l2.93,3.187c-0.01,0.02-0.023,0.037-0.032,0.056c-1.581,3.257-1.926,6.976-0.971,10.468l3.793,13.877h6.817l3.145-15.218
		c0.551-2.667,0.363-5.433-0.543-8.001l-0.158-0.446c-0.108-0.305-0.24-0.595-0.388-0.874l1.728-0.87
		c1.633-0.823,3.027-2.051,4.048-3.568C263.732,114.7,263.625,112.938,262.577,111.728z"/>
	<linearGradient id="SVGID_8_" gradientUnits="userSpaceOnUse" x1="212.0226" y1="145.0061" x2="212.0226" y2="114.2988">
		<stop  offset="0" style="stop-color:#FFFFFF"/>
		<stop  offset="0.6673" style="stop-color:#EAEBED;stop-opacity:0.6664"/>
		<stop  offset="1" style="stop-color:#DEDFE3;stop-opacity:0.5"/>
	</linearGradient>
	<path fill="url(#SVGID_8_)" d="M216.94,117.903c0-0.848-0.687-1.535-1.535-1.535c-0.702,0-1.292,0.471-1.475,1.114
		c-0.196-0.272-0.45-0.497-0.746-0.654c0.516-0.603,0.496-1.508-0.075-2.079h0c-0.599-0.599-1.571-0.599-2.171,0
		c-0.599,0.599-0.599,1.571,0,2.171l0.045,0.045c-0.076,0.052-0.148,0.108-0.216,0.169c-0.003,0.003-0.007,0.006-0.011,0.009
		c-0.039,0.035-0.076,0.072-0.112,0.11c-0.012,0.012-0.024,0.024-0.036,0.037c-0.031,0.034-0.06,0.069-0.088,0.105
		c-0.015,0.019-0.03,0.038-0.045,0.057c-0.025,0.033-0.048,0.067-0.071,0.101c-0.016,0.024-0.032,0.049-0.047,0.074
		c-0.02,0.032-0.038,0.065-0.056,0.098c-0.016,0.029-0.03,0.059-0.045,0.089c-0.015,0.032-0.03,0.063-0.044,0.096
		c-0.013,0.031-0.025,0.063-0.037,0.095v-0.101c0-0.848-0.687-1.535-1.535-1.535c-0.848,0-1.535,0.687-1.535,1.535
		c0,0.848,0.687,1.535,1.535,1.535h0.793c-0.605,0.382-1.008,1.054-1.008,1.823c0,0.1,0.007,0.199,0.02,0.296
		c0.093,0.677,0.499,1.253,1.067,1.579c0.055,0.032,0.097,0.075,0.124,0.124c0.014,0.025,0.024,0.051,0.031,0.078
		c0.007,0.027,0.01,0.054,0.01,0.082c0,0.11-0.055,0.221-0.166,0.284c-0.092,0.053-0.178,0.114-0.261,0.179
		c-0.18,0.142-0.335,0.312-0.462,0.503c-0.228,0.342-0.364,0.75-0.364,1.192c0,0.1,0.007,0.199,0.02,0.296
		c0.093,0.677,0.499,1.253,1.067,1.579c0.055,0.032,0.097,0.075,0.124,0.124c0.014,0.025,0.024,0.051,0.031,0.078
		c0.007,0.027,0.01,0.054,0.01,0.082c0,0.11-0.055,0.221-0.166,0.284c-0.092,0.053-0.178,0.114-0.261,0.179
		c-0.18,0.142-0.335,0.312-0.462,0.503c-0.228,0.342-0.364,0.75-0.364,1.192c0,0.1,0.007,0.199,0.02,0.296
		c0.093,0.677,0.499,1.253,1.067,1.579c0.055,0.032,0.097,0.075,0.124,0.124c0.014,0.025,0.024,0.051,0.031,0.078
		c0.007,0.027,0.01,0.054,0.01,0.082c0,0.11-0.055,0.221-0.166,0.284c-0.092,0.053-0.178,0.114-0.261,0.179
		c-0.18,0.142-0.335,0.312-0.462,0.503c-0.228,0.342-0.364,0.75-0.364,1.192c0,0.1,0.007,0.199,0.02,0.296
		c0.093,0.677,0.499,1.253,1.067,1.579c0.111,0.063,0.166,0.174,0.166,0.284c0,0.076-0.028,0.151-0.08,0.212
		c-0.005,0.005-0.008,0.012-0.013,0.017c-0.005,0.005-0.012,0.008-0.017,0.013c-0.017,0.015-0.034,0.03-0.056,0.043
		c-0.292,0.167-0.537,0.403-0.723,0.682c-0.228,0.342-0.364,0.75-0.364,1.192c0,0.1,0.007,0.199,0.02,0.296
		c0.026,0.193,0.079,0.378,0.153,0.552c0.111,0.26,0.272,0.494,0.471,0.69c0.132,0.13,0.282,0.244,0.444,0.337
		c0.111,0.064,0.166,0.174,0.165,0.285c0,0.111-0.056,0.221-0.167,0.285c-0.687,0.394-1.137,1.156-1.081,2.017l0,0v0
		c0.074,1.147,1.078,2.015,2.228,2.015h0h1.365h1.725c1.15,0,2.154-0.868,2.228-2.015c0.056-0.861-0.394-1.623-1.081-2.017
		c-0.222-0.127-0.224-0.442-0.002-0.569c0.65-0.372,1.087-1.072,1.087-1.874c0-0.802-0.438-1.502-1.087-1.875
		c-0.221-0.127-0.221-0.442,0-0.568c0.65-0.372,1.087-1.072,1.087-1.875s-0.438-1.502-1.087-1.875c-0.221-0.127-0.221-0.442,0-0.568
		c0.65-0.372,1.087-1.072,1.087-1.875c0-0.802-0.438-1.502-1.087-1.875c-0.221-0.127-0.221-0.442,0-0.568
		c0.65-0.372,1.087-1.072,1.087-1.875c0-0.802-0.438-1.502-1.087-1.875c-0.221-0.127-0.221-0.442,0-0.568
		c0.65-0.372,1.087-1.072,1.087-1.875c0-0.769-0.403-1.441-1.008-1.823h0.433C216.252,119.438,216.94,118.75,216.94,117.903z"/>
</g>
</svg>
