<?xml version="1.0" encoding="utf-8"?>
<!-- Generator: Adobe Illustrator 22.0.1, SVG Export Plug-In . SVG Version: 6.00 Build 0)  -->
<svg version="1.1" id="Layer_1" xmlns="http://www.w3.org/2000/svg" xmlns:xlink="http://www.w3.org/1999/xlink" x="0px" y="0px"
	  width="312" height="150" viewBox="0 0 312 150" enable-background="new 0 0 312 150" xml:space="preserve">
<g>
	<path fill="#E5E7EA" d="M187.487,49.919c-7.186,0-19.164,1.198-25.877-11.691l-0.005,0.002
		C155.213,25.962,142.39,17.58,127.6,17.58c-21.167,0-38.327,17.16-38.327,38.327c0,21.167,17.16,38.327,38.327,38.327H233
		C233,94.235,212.639,49.919,187.487,49.919z"/>
	<path fill="#EFF0F2" d="M143.801,76.849c-4.742,0-12.644,0.79-17.074-7.714l-0.003,0.001c-4.217-8.094-12.678-13.624-22.436-13.624
		C90.322,55.513,79,66.834,79,80.801c0,13.966,11.322,25.288,25.288,25.288h69.542C173.83,106.089,160.396,76.849,143.801,76.849z"
		/>
	
		<linearGradient id="SVGID_1_" gradientUnits="userSpaceOnUse" x1="301.3975" y1="33.6092" x2="301.3975" y2="16" gradientTransform="matrix(1 0 0 1 -102.3465 0)">
		<stop  offset="0" style="stop-color:#FFFFFF"/>
		<stop  offset="1" style="stop-color:#DFE1E5"/>
	</linearGradient>
	<path fill="url(#SVGID_1_)" d="M229.758,30.408h-2.218c-2.006,0-3.774-1.179-4.706-2.955c-1.929-3.676-5.781-6.183-10.22-6.183
		c-3.423,0-6.489,1.499-8.602,3.867C201.223,19.715,195.585,16,189.069,16c-7.252,0-13.416,4.597-15.769,11.033
		c-0.752,2.055-2.768,3.375-4.956,3.375h0c-0.711,0-1.401,0.416-1.609,1.096c-0.337,1.099,0.476,2.106,1.524,2.106l61.585,0
		c0.972,0,1.742-0.867,1.579-1.87C231.294,30.952,230.555,30.408,229.758,30.408z"/>
	<rect x="158.815" y="106.089" fill="#B7BCC2" width="3.951" height="18.176"/>
	<g>
		<path fill="#BDC1C6" d="M155.186,124.264c-2.143,0-3.881,1.737-3.881,3.881v8.763h5.532v-12.644H155.186z"/>
		<path fill="#DADCE0" d="M170.271,128.145c0-2.143-1.737-3.881-3.881-3.881h-9.554v12.644h13.434V128.145z"/>
	</g>
	<rect x="149.329" y="136.908" fill="#BDC1C6" width="9.483" height="2.371"/>
	<rect x="158.812" y="136.908" fill="#DADCE0" width="13.434" height="2.371"/>
	<path fill="#F8BA2D" d="M158.028,149.552h-3.122c-0.665,0-1.205-0.539-1.205-1.205v-9.069h5.532v9.069
		C159.233,149.013,158.694,149.552,158.028,149.552z"/>
	<circle fill="#FFFFFF" cx="156.467" cy="146.626" r="1.581"/>
	<path fill="#F8BA2D" d="M166.67,149.552h-3.122c-0.665,0-1.205-0.539-1.205-1.205v-9.069h5.532v9.069
		C167.875,149.013,167.335,149.552,166.67,149.552z"/>
	<circle fill="#FFFFFF" cx="165.109" cy="146.626" r="1.581"/>
</g>
</svg>
