<svg id="Layer_1" data-name="Layer 1" xmlns="http://www.w3.org/2000/svg" width="140" height="140" viewBox="0 0 140 140">
  <title>Commute Tab - General Error _No connection</title>
  <g>
    <polygon points="43.084 120.324 14.052 113.258 14.052 34.115 43.084 41.181 43.084 120.324" fill="#eff0f2"/>
    <polygon points="72.056 113.258 43.025 120.324 43.025 41.181 72.056 34.115 72.056 113.258" fill="#dfe1e5"/>
    <polygon points="101.028 120.324 71.997 113.258 71.997 34.115 101.028 41.181 101.028 120.324" fill="#eff0f2"/>
    <polygon points="130 113.258 100.969 120.324 100.969 41.181 130 34.115 130 113.258" fill="#dfe1e5"/>
  </g>
  <path d="M59.241,86.168c-2.028,0-2.829-1.363-1.779-3.028L70.092,63.1c1.05-1.665,2.767-1.665,3.818,0L86.538,83.139c1.05,1.666.249,3.029-1.78,3.029Z" fill="#df382b" fill-rule="evenodd"/>
  <rect x="70.5" y="67.996" width="3" height="9" fill="#fff"/>
  <circle cx="72" cy="81.496" r="1.95" fill="#fff"/>
</svg>
