<?xml version="1.0" encoding="utf-8"?>
<!-- Generator: Adobe Illustrator 22.0.1, SVG Export Plug-In . SVG Version: 6.00 Build 0)  -->
<svg version="1.1" id="Layer_1" xmlns="http://www.w3.org/2000/svg" xmlns:xlink="http://www.w3.org/1999/xlink" x="0px" y="0px"
	 width="24px" height="24px" viewBox="0 0 24 24" enable-background="new 0 0 24 24" xml:space="preserve">
<path d="M4,9v9h3V9H4z M21,11V9h-9l1.34-5.34L9,8v10h9L21,11z M21,7c1.1,0,2,0.9,2,2v2c0,0.26-0.05,0.5-0.14,0.73l-3.02,7.05
	C19.54,19.5,18.83,20,18,20H9H2V7h5.28c0.08-0.15,0.18-0.29,0.3-0.41L14.17,0l1.06,1.05c0.27,0.27,0.44,0.65,0.44,1.06l-0.03,0.32
	L14.69,7H21z"/>
</svg>
