<?xml version="1.0" encoding="utf-8"?>
<!-- Generator: Adobe Illustrator 22.0.1, SVG Export Plug-In . SVG Version: 6.00 Build 0)  -->
<svg version="1.1" id="Layer_1" xmlns="http://www.w3.org/2000/svg" xmlns:xlink="http://www.w3.org/1999/xlink" x="0px" y="0px"
	 width="24px" height="24px" viewBox="0 0 24 24" enable-background="new 0 0 24 24" xml:space="preserve">
<path d="M17.5,15c-0.83,0-1.5-0.67-1.5-1.5c0-0.83,0.67-1.5,1.5-1.5s1.5,0.67,1.5,1.5C19,14.33,18.33,15,17.5,15z M6.5,15
	C5.67,15,5,14.33,5,13.5C5,12.67,5.67,12,6.5,12S8,12.67,8,13.5C8,14.33,7.33,15,6.5,15z M19.38,9l-2-4H6.62l-2,4H19.38z M4,11v5h16
	v-5H4z M22,9h1c0.55,0,1,0.45,1,1s-0.45,1-1,1h-0.38H22v7v1.5c0,0.83-0.67,1.5-1.5,1.5S19,20.33,19,19.5V18H5v1.5
	C5,20.33,4.33,21,3.5,21S2,20.33,2,19.5V18v-7H1.38H1c-0.55,0-1-0.45-1-1s0.45-1,1-1h1h0.38l2.45-4.89C5.17,3.43,5.86,3,6.62,3
	h10.76c0.76,0,1.45,0.43,1.79,1.11L21.62,9H22z"/>
</svg>
