<?xml version="1.0" encoding="utf-8"?>
<svg xmlns="http://www.w3.org/2000/svg" width="32" height="32" viewBox="0 0 32 32"><title>32</title><path fill="none" d="M0 0h32v32H0z"/><path d="M3.75 3.75l-1.9 1.88L8.23 12H4v8h5.33L16 26.67v-6.89l4.43 4.43c-.56.31-1.13.56-1.76.75v2.75c1.33-.31 2.57-.85 3.69-1.56l4.01 4.01 1.88-1.88L3.75 3.75zm9.58 16.48l-2.89-2.89H6.67v-2.67h4.23l2.44 2.44v3.12zM16 5.33v6.89l-3.45-3.44L16 5.33zM22 16c0 .67-.12 1.31-.32 1.91l-3.01-3.01v-4.27A5.99 5.99 0 0 1 22 16zm3.33 0c0-4.23-2.81-7.8-6.67-8.95V4.31C24.01 5.52 28 10.29 28 16c0 2.35-.68 4.53-1.84 6.39l-1.95-1.95A9.374 9.374 0 0 0 25.33 16z"/></svg>
