<?xml version="1.0" encoding="utf-8"?>
<!-- Generator: Adobe Illustrator 22.0.1, SVG Export Plug-In . SVG Version: 6.00 Build 0)  -->
<svg version="1.1" id="Layer_1" xmlns="http://www.w3.org/2000/svg" xmlns:xlink="http://www.w3.org/1999/xlink" x="0px" y="0px"
	 width="20px" height="8px" viewBox="0 0 20 8" enable-background="new 0 0 20 8" xml:space="preserve">
<path d="M2.26,7.79C1.55,8.21,0.63,7.97,0.21,7.26c-0.42-0.71-0.18-1.63,0.53-2.05l8.5-5c0.47-0.28,1.05-0.28,1.52,0l8.5,5
	c0.71,0.42,0.95,1.34,0.53,2.05c-0.42,0.71-1.34,0.95-2.05,0.53L10,3.24L2.26,7.79z M2.26,7.79C1.55,8.21,0.63,7.97,0.21,7.26
	c-0.42-0.71-0.18-1.63,0.53-2.05l8.5-5c0.47-0.28,1.05-0.28,1.52,0l8.5,5c0.71,0.42,0.95,1.34,0.53,2.05
	c-0.42,0.71-1.34,0.95-2.05,0.53L10,3.24L2.26,7.79z"/>
</svg>
