<?xml version="1.0" encoding="utf-8"?>
<!-- Generator: Adobe Illustrator 21.0.2, SVG Export Plug-In . SVG Version: 6.00 Build 0)  -->
<svg version="1.1" id="Layer_1" xmlns="http://www.w3.org/2000/svg" xmlns:xlink="http://www.w3.org/1999/xlink" x="0px" y="0px"
	 width="32px" height="32px" viewBox="0 0 32 32" enable-background="new 0 0 32 32" xml:space="preserve">
<g id="compound_path">
	<polygon points="17,15 21,15 21,17 17,17 17,21 15,21 15,17 11,17 11,15 15,15 15,11 17,11 	"/>
	<path d="M16.21,3.04c-7.05,0-12.77,5.72-12.77,12.77c0,1.91,0.41,3.74,1.18,5.37L2.03,30l8.83-2.6c1.63,0.76,3.44,1.18,5.37,1.18
		c7.05,0,12.77-5.72,12.77-12.77S23.27,3.04,16.21,3.04z M16.28,25.9c-1.49,0-2.92-0.31-4.27-0.94c-0.64-0.3-1.36-0.35-2.04-0.15
		l-3.92,1.16l1.16-3.92c0.21-0.68,0.15-1.4-0.15-2.04c-0.62-1.34-0.94-2.78-0.94-4.27c0-5.6,4.56-10.16,10.15-10.16
		c5.6,0,10.15,4.56,10.15,10.16C26.43,21.34,21.88,25.9,16.28,25.9z"/>
</g>
<rect id="bounding_box" fill="none" width="32" height="32"/>
</svg>
