<svg xmlns="http://www.w3.org/2000/svg" width="39" height="14" viewBox="0 0 39 14"><path fill="#FFF" d="M24.54 8.88L19.5 6.01l-5.04 2.87c-.46.26-1.06.1-1.33-.36-.27-.45-.11-1.03.34-1.3.01 0 .01-.01.02-.01l5.52-3.08c.31-.17.68-.17.98 0l5.52 3.08c.46.26.62.83.37 1.29 0 .01-.01.01-.01.02-.27.46-.87.62-1.33.36z"/><path fill="#D8D8D8" fill-opacity=".309" d="M7 .5h25c3.59 0 6.5 2.91 6.5 6.5s-2.91 6.5-6.5 6.5H7C3.41 13.5.5 10.59.5 7S3.41.5 7 .5z"/><path fill="#DADCE0" d="M32 14H7c-3.86 0-7-3.14-7-7s3.14-7 7-7h25c3.86 0 7 3.14 7 7s-3.14 7-7 7zM7 1C3.69 1 1 3.69 1 7s2.69 6 6 6h25c3.31 0 6-2.69 6-6s-2.69-6-6-6H7z"/><g><path fill="#70757A" d="M24.54 8.87L19.5 6l-5.04 2.87c-.46.27-1.06.11-1.33-.36-.27-.45-.11-1.03.34-1.3.01 0 .01-.01.02-.01l5.52-3.08c.31-.17.68-.17.98 0l5.52 3.08c.46.26.62.83.37 1.29 0 .01-.01.01-.01.02-.27.47-.87.63-1.33.36z"/></g></svg>