<?xml version="1.0" encoding="utf-8"?>
<!-- Generator: Adobe Illustrator 21.0.2, SVG Export Plug-In . SVG Version: 6.00 Build 0)  -->
<svg version="1.1" id="Layer_1" xmlns="http://www.w3.org/2000/svg" xmlns:xlink="http://www.w3.org/1999/xlink" x="0px" y="0px"
	 width="39px" height="14px" viewBox="0 0 39 14" enable-background="new 0 0 39 14" xml:space="preserve">
<path fill="#FFFFFF" d="M24.54,8.88L19.5,6.01l-5.04,2.87C14,9.14,13.4,8.98,13.13,8.52c-0.27-0.45-0.11-1.03,0.34-1.3
	c0.01,0,0.01-0.01,0.02-0.01l5.52-3.08c0.31-0.17,0.68-0.17,0.98,0l5.52,3.08c0.46,0.26,0.62,0.83,0.37,1.29
	c0,0.01-0.01,0.01-0.01,0.02C25.6,8.98,25,9.14,24.54,8.88z"/>
<path fill="#FFFFFF" fill-opacity="0.309" d="M7,0.5h25c3.59,0,6.5,2.91,6.5,6.5s-2.91,6.5-6.5,6.5H7c-3.59,0-6.5-2.91-6.5-6.5
	S3.41,0.5,7,0.5z"/>
<path fill="#DADCE0" d="M32,14H7c-3.86,0-7-3.14-7-7s3.14-7,7-7h25c3.86,0,7,3.14,7,7S35.86,14,32,14z M7,1C3.69,1,1,3.69,1,7
	s2.69,6,6,6h25c3.31,0,6-2.69,6-6s-2.69-6-6-6H7z"/>
<g>
	<path fill="#3C4043" d="M24.54,8.87L19.5,6l-5.04,2.87C14,9.14,13.4,8.98,13.13,8.51c-0.27-0.45-0.11-1.03,0.34-1.3
		c0.01,0,0.01-0.01,0.02-0.01l5.52-3.08c0.31-0.17,0.68-0.17,0.98,0l5.52,3.08c0.46,0.26,0.62,0.83,0.37,1.29
		c0,0.01-0.01,0.01-0.01,0.02C25.6,8.98,25,9.14,24.54,8.87z"/>
</g>
</svg>
