<?xml version="1.0" encoding="utf-8"?>
<!-- Generator: Adobe Illustrator 21.0.2, SVG Export Plug-In . SVG Version: 6.00 Build 0)  -->
<svg version="1.1" id="Layer_1" xmlns="http://www.w3.org/2000/svg" xmlns:xlink="http://www.w3.org/1999/xlink" x="0px" y="0px"
	 width="48px" height="48px" viewBox="0 0 48 48" enable-background="new 0 0 48 48" xml:space="preserve">
<title>Asset 1</title>
<g>
	<path fill="#EAEAEA" d="M24.25,36.53v5.11c0,0.03-0.01,0.06-0.01,0.09v0.43c-0.01,1.01-0.83,1.83-1.84,1.84h-8
		c-1.02,0-1.85-0.83-1.85-1.85v-0.52V36.1L0,35.65V40c0,4.42,3.58,8,8,8h32c4.42,0,8-3.58,8-8v-2.62L24.25,36.53z"/>
	<path fill="#EAEAEA" d="M29.46,19.34c-0.29-0.12-0.59-0.18-0.9-0.17h-0.12l-20.71-0.8c-0.26-0.04-0.53-0.04-0.79,0
		c-0.25,0.06-0.48,0.16-0.7,0.3l-0.27,0.15l-0.16,0.07L30.49,20l-0.43-0.3C29.88,19.55,29.68,19.43,29.46,19.34z"/>
	<path fill="#EAEAEA" d="M5.52,12.42c0.89-0.21,1.81-0.28,2.72-0.2l17.98,0.69V6.45V5.91c0-1.05,0.86-1.91,1.91-1.91h8.26
		c1.05,0,1.91,0.86,1.91,1.91v0.54v7.91v0.54c0.01,1.05-0.84,1.92-1.89,1.93c-0.01,0-0.01,0-0.02,0h-0.13l4.13,3.49L48,20.66V8
		c0-4.42-3.58-8-8-8H8C3.58,0,0,3.58,0,8v6.88l3.14-1.46C3.88,12.96,4.68,12.63,5.52,12.42z"/>
	<path fill="#FFFFFF" d="M48,20.66l-7.61-0.34l-4.13-3.49h-8.13c-1.05,0-1.91-0.86-1.91-1.91v-0.54v-1.47L8.24,12.22
		c-0.91-0.08-1.83-0.01-2.72,0.2c-0.84,0.21-1.64,0.54-2.38,1L0,14.88v5.39l48,2.58C48,22.85,48,20.66,48,20.66z M13.84,14.93
		l3.7,0.1l0.05-1.8l3.78,2.33l-3.9,2.12l0.03-1.42l-3.69-0.11L13.84,14.93z M5.81,18.89l0.16-0.07l0.27-0.15
		c0.22-0.14,0.45-0.24,0.7-0.3c0.26-0.04,0.53-0.04,0.79,0l20.71,0.8h0.12c0.31-0.01,0.61,0.05,0.9,0.17
		c0.22,0.09,0.42,0.21,0.6,0.36l0.43,0.3L5.81,18.89z"/>
	<path fill="#FFFFFF" d="M48,27.59l-2.2-0.13v-0.51l2.2,0.12V24.7L0,22.12v2.33l3.05,0.16v0.51L0,24.96v2.17l48,2.62V27.59z
		 M16.72,25.89L4.79,25.24l0.03-0.51l11.93,0.65L16.72,25.89z M30.37,26.63l-11.94-0.65l0.03-0.51l11.93,0.65L30.37,26.63z
		 M44.05,27.36l-11.93-0.65l0.03-0.51l11.93,0.65L44.05,27.36z"/>
	<path fill="#FFFFFF" d="M12.55,34v-0.52c0-1.02,0.83-1.85,1.85-1.85h8c1.02,0,1.85,0.83,1.85,1.85v3.05L48,37.39v-5.76l-48-2.6
		v6.63l12.55,0.45V34z"/>
	
		<rect x="10.51" y="19.34" transform="matrix(0.0541 -0.9985 0.9985 0.0541 -15.0983 34.6969)" fill="#A3A3A3" width="0.51" height="11.95"/>
	<polygon fill="#A3A3A3" points="3.05,24.62 0,24.46 0,24.97 3.05,25.13 	"/>
	<polygon fill="#A3A3A3" points="45.8,27.46 48,27.59 48,27.07 45.8,26.95 	"/>
	
		<rect x="24.16" y="20.08" transform="matrix(0.0541 -0.9985 0.9985 0.0541 -2.9206 49.0239)" fill="#A3A3A3" width="0.51" height="11.95"/>
	
		<rect x="37.85" y="20.81" transform="matrix(0.0541 -0.9985 0.9985 0.0541 9.2988 63.3827)" fill="#A3A3A3" width="0.51" height="11.95"/>
	<polygon fill="#AB30B5" points="48,29.76 0,27.14 0,29.02 48,31.62 	"/>
	<polygon fill="#2E2EFF" points="48,22.84 0,20.26 0,22.13 48,24.71 	"/>
	<path fill="#C1C1C1" d="M22.4,43.48h-8c-1.02,0-1.85-0.83-1.85-1.85v0.52c0,1.02,0.83,1.85,1.85,1.85h8
		c1.01-0.01,1.83-0.83,1.84-1.84v-0.43C24.18,42.7,23.38,43.47,22.4,43.48z"/>
	<path fill="#00B0FF" d="M22.4,31.63h-8c-1.02,0-1.85,0.83-1.85,1.85V34v2.1v5.53c0,1.02,0.83,1.85,1.85,1.85h8
		c0.98-0.01,1.78-0.78,1.84-1.75c0-0.03,0.01-0.06,0.01-0.09v-5.11v-3.05C24.25,32.46,23.42,31.63,22.4,31.63z M22.15,41.13h-1.02
		v1.12h-1.11v-1.12h-3.16v1.12h-1.11v-1.12h-1.01c0-1.7,0-4.55,0-4.55L15.07,34c1.97-1.49,4.68-1.49,6.65,0l0.43,2.46V41.13z"/>
	<path fill="#FFFFFF" d="M21.72,34c-1.97-1.49-4.68-1.49-6.65,0l-0.33,2.58c0,0,0,2.85,0,4.55h1.01v-0.58h1.11v0.58h3.16v-0.58h1.11
		v0.58h1.02v-4.67L21.72,34z M16.84,40.06h-1.12v-1.04h1.12V40.06z M15.72,37.91v-3.15h5.4v3.15H15.72z M21.14,40.06h-1.12v-1.04
		h1.12V40.06z"/>
	<polygon fill="#FFFFFF" points="15.75,40.55 15.75,41.13 15.75,42.25 16.86,42.25 16.86,41.13 16.86,40.55 	"/>
	<polygon fill="#FFFFFF" points="20.02,40.55 20.02,41.13 20.02,42.25 21.13,42.25 21.13,41.13 21.13,40.55 	"/>
	<rect x="15.72" y="34.76" fill="#00B0FF" width="5.4" height="3.15"/>
	<rect x="15.72" y="39.02" fill="#00B0FF" width="1.12" height="1.04"/>
	<rect x="20.02" y="39.02" fill="#00B0FF" width="1.12" height="1.04"/>
	<path fill="#C1C1C1" d="M36.41,16.83c1.05-0.01,1.9-0.88,1.89-1.93v-0.54c0.01,1.05-0.84,1.92-1.89,1.93c-0.01,0-0.01,0-0.02,0
		h-8.26c-1.05,0-1.91-0.86-1.91-1.91v0.54c0,1.05,0.86,1.91,1.91,1.91h8.13h0.13C36.4,16.83,36.4,16.83,36.41,16.83z"/>
	<path fill="#00B0FF" d="M28.13,16.29h8.26c0.01,0,0.01,0,0.02,0c1.05-0.01,1.9-0.88,1.89-1.93V6.45V5.91C38.3,4.86,37.44,4,36.39,4
		h-8.26c-1.05,0-1.91,0.86-1.91,1.91v0.54v6.46v1.47C26.22,15.43,27.08,16.29,28.13,16.29z"/>
	<polygon fill="#C5C9DA" points="17.47,17.68 21.37,15.56 17.59,13.23 17.54,15.03 13.84,14.93 13.81,16.15 17.5,16.26 	"/>
</g>
<g enable-background="new    ">
	<path fill="#FFFFFF" d="M30.35,6.36l1.94,5.48l1.93-5.48h2.04v7.56H34.7v-2.07l0.16-3.57l-2.04,5.63h-1.07l-2.04-5.63l0.16,3.56
		v2.07h-1.56V6.35L30.35,6.36L30.35,6.36z"/>
</g>
</svg>
