<?xml version="1.0" encoding="utf-8"?>
<!-- Generator: Adobe Illustrator 21.0.2, SVG Export Plug-In . SVG Version: 6.00 Build 0)  -->
<svg version="1.1" id="Layer_1" xmlns="http://www.w3.org/2000/svg" xmlns:xlink="http://www.w3.org/1999/xlink" x="0px" y="0px"
	 width="48px" height="48px" viewBox="0 0 48 48" enable-background="new 0 0 48 48" xml:space="preserve">
<title>Asset 1</title>
<g>
	<path fill="#C1C9B9" d="M19.6,32.8c-0.62,0.07-6.92,1.61-6.92,1.61l-0.94,1.08L9.47,35.2l-1.79,1.62L4.5,38.11l4.46,1.9l6.65-1.61
		l3.27-3.39l4.27,0.39l3.69,2l0.02-0.02l0.84-2.64l-2.99-0.38C23.05,33.72,21.34,33.2,19.6,32.8z"/>
	<path fill="#C1C9B9" d="M4.47,4.91L6.24,0.2C5.35,0.4,4.52,0.75,3.77,1.22l0.68,3.69H4.47z"/>
	<path fill="#C1C9B9" d="M9.14,32.21l8.73-3.2c0,0,8.6-1,11.71-1.42l-1.04-0.92l2-4.14l-1-1.6l3.4-5.37l-1.38-1.1l1.89-5.1
		l-1.83-1.64c-1,0.06-1.98,0.79-3.34,1.89c-0.73,0.62-1.5,1.18-2.32,1.67c-1.34,0.66-2.78,1.08-4.27,1.25
		c-1.28,0.07-2.51,0.48-3.58,1.18c-0.75,0.69-1.37,2.4-1.91,3.9c-0.5,1.56-1.17,3.06-2,4.48c-1.71,2.68-4.96,6.36-7.46,7.87
		c-1.48,0.75-3.07,1.29-4.71,1.58c-0.69,0.13-1.36,0.3-2.03,0.5v2.08l3.04-1.35L9.14,32.21z"/>
	<path fill="#C1C9B9" d="M9.97,43.17l-1.26-1.53l-3.5-0.92l-0.1,2.49L1.74,44.7l4.59,2.31l0.53,0.9C7.23,47.96,7.61,48,8,48h10.39
		l2.07-5.71L9.97,43.17z"/>
	<polygon fill="#C1C9B9" points="22.55,0.4 23.45,0 22.6,0 22.58,0.34 	"/>
	<path fill="#A2A79B" d="M1.74,44.7l3.37-1.49l0.1-2.49l3.5,0.92l1.26,1.53l10.49-0.88l0,0l2.4-0.91l3.98-3.98l-3.69-2l-4.27-0.39
		l-3.27,3.39l-6.65,1.61l-4.46-1.9l3.18-1.29l1.79-1.62l2.27,0.29l0.94-1.08c0,0,6.3-1.54,6.92-1.61c1.74,0.4,3.45,0.92,5.11,1.56
		l2.99,0.38l0.75-2.36l1.16-4.77l-0.03-0.02c-3.11,0.42-11.71,1.42-11.71,1.42l-8.73,3.2l-6.1,0.57L0,34.13V40
		c0,4.03,2.98,7.35,6.86,7.91l-0.53-0.9L1.74,44.7z"/>
	<path fill="#A2A79B" d="M4.18,25.74c0.61-0.46,1.19-0.95,1.75-1.46l-5.4-0.5l1.96-2.38l3.12,0.53l-0.63-3.54l3.22-2l0.45-3.38
		l2.38-3l-0.81-4.37L12.91,0H8C7.4,0,6.81,0.07,6.24,0.2L4.47,4.91H4.45l0.02,0.1L2.58,9.8L0,15.39v11.54
		c0.29-0.07,0.57-0.14,0.86-0.2C2,26.53,3.11,26.19,4.18,25.74z"/>
	<path fill="#A2A79B" d="M2.03,4.16L1.68,3.11C0.63,4.46,0,6.16,0,8v1.86l0.23-0.58L2.03,4.16z"/>
	<path fill="#A2A79B" d="M18.9,6.45l2-0.41l-0.77,1.78c0.23-0.04,0.47-0.08,0.7-0.12c0.92-0.09,1.81-0.33,2.66-0.69
		c0.58-0.38,1.14-0.81,1.66-1.27c1.17-0.97,2.57-2.09,4.31-2.65L30.07,0h-6.61l-0.91,0.4L18.9,6.45z"/>
	<path fill="#80837C" d="M48,39.83v-1.5l-0.54,0.24C47.66,38.99,47.84,39.41,48,39.83z"/>
	<path fill="#80837C" d="M38.17,6.52c0.04,0.06,0.09,0.11,0.12,0.17l3.53-0.77l5.21,0.24l0.63-0.48c-0.2-0.66-0.49-1.28-0.84-1.86
		l-2.69,0.1L38.17,6.52z"/>
	<path fill="#80837C" d="M48,15.76v-0.75l-1.82,1.39C46.18,16.4,47.08,16.07,48,15.76z"/>
	<path fill="#80837C" d="M43.71,44.69c0.14-0.42,0.21-0.81,0.19-1.17c-0.06-1.25-0.54-2.46-1.24-3.69c-2.21,0.2-7.98,0.7-8.27,0.69
		c-0.36-0.01,2.09,2.57,2.09,2.57l1.7,4.48L38.11,48H40c0.33,0,0.66-0.03,0.99-0.07l-0.36-2.73L43.71,44.69z"/>
	<path fill="#80837C" d="M34.13,29.75c-0.39,0.39-0.47,5.71-0.47,5.71l1.24-0.53c0.4-0.13,2.47-0.17,4.2-0.18
		c-0.77-1.08-1.48-2.2-2.12-3.36C35.55,30.39,34.29,29.59,34.13,29.75z"/>
	<path fill="#80837C" d="M39.79,26.01l0.93,0.63l4.9,0.47l2.38,0.5v-1.99l-8.43-0.48C39.63,25.42,39.7,25.71,39.79,26.01z"/>
	<path fill="#80837C" d="M48,31.06v-1.48c-0.73,0.16-1.28,0.28-1.38,0.3C46.43,29.92,47.22,30.51,48,31.06z"/>
	<path fill="#80837C" d="M40.19,16.54c-0.09,0.67-0.2,1.34-0.34,2c-0.34,1.82-0.64,3.48-0.49,5.26l0.07,0.1c0,0,5.99-1.31,6.73-1.81
		c0.59-0.31,1.21-0.54,1.84-0.74v-2.98l-0.45,0.4C47.55,18.77,43.19,17.48,40.19,16.54z"/>
	<path fill="#71756C" d="M40.63,45.2l0.36,2.73c0.36-0.04,0.72-0.12,1.06-0.21c0.73-1.08,1.36-2.13,1.66-3.04L40.63,45.2z"/>
	<path fill="#71756C" d="M31.65,2.74c0.46,0,0.92,0.05,1.37,0.13c1.89,0.37,3.76,1.67,5.15,3.65l5.95-2.6l2.69-0.1
		C45.4,1.53,42.88,0,40,0h-9.94l-0.61,3.09C30.13,2.88,30.86,2.74,31.65,2.74z"/>
	<path fill="#71756C" d="M39.43,23.9l-0.07-0.1c0.04,0.44,0.1,0.88,0.2,1.34l8.43,0.48v-4.27c-0.63,0.2-1.25,0.43-1.84,0.74
		C45.42,22.59,39.43,23.9,39.43,23.9z"/>
	<path fill="#71756C" d="M36.48,43.09c0,0-2.45-2.58-2.09-2.57c0.29,0.01,6.06-0.5,8.27-0.69c-0.72-1.25-1.66-2.51-2.63-3.82
		c-0.32-0.41-0.63-0.84-0.93-1.26c-1.73,0.01-3.8,0.05-4.2,0.18l-1.24,0.53c0,0,0.08-5.32,0.47-5.71c0.16-0.16,1.42,0.64,2.85,1.64
		C36.6,30.7,36.23,30,35.9,29.28c-2.08-4.73-1.36-8.61-0.78-11.73c0.21-0.99,0.36-1.99,0.44-3c0.24-4.35-2.06-6.6-3.35-6.84
		c-0.15-0.01-0.31-0.01-0.46,0c-0.04,0-0.08,0.01-0.13,0.01l1.83,1.64l-1.89,5.1l1.38,1.1l-3.4,5.37l1,1.6l-2,4.14l1.04,0.92
		l0.03,0.02l-1.16,4.77l-0.75,2.36l-0.84,2.64l-0.02,0.02l-3.98,3.98l-2.4,0.91l0,0L18.39,48h19.72l0.07-0.43L36.48,43.09z"/>
	<path fill="#71756C" d="M40.72,26.64l-0.93-0.63c0.14,0.44,0.3,0.9,0.51,1.37c1,2.03,2.22,3.95,3.64,5.72
		c1.29,1.75,2.6,3.54,3.52,5.47L48,38.33v-7.28c-0.78-0.54-1.57-1.13-1.38-1.18c0.1-0.02,0.65-0.14,1.38-0.3v-1.96l-2.38-0.5
		L40.72,26.64z"/>
	<path fill="#71756C" d="M41.82,5.92l-3.53,0.77c1.39,2.08,2.26,4.89,2.08,8.18c-0.04,0.56-0.11,1.11-0.18,1.67
		c3,0.94,7.36,2.23,7.36,2.23l0.45-0.4v-2.61c-0.92,0.31-1.82,0.64-1.82,0.64L48,15.01V8c0-0.81-0.12-1.59-0.34-2.32l-0.63,0.48
		L41.82,5.92z"/>
	<path fill="#71756C" d="M12.91,0l-2.69,5.64l0.81,4.37l-2.38,3L8.2,16.39l-3.22,2l0.63,3.54L2.49,21.4l-1.96,2.38l5.4,0.5
		c1.57-1.43,2.95-3.05,4.1-4.84c0.61-1.11,1.11-2.28,1.49-3.49c0.78-2.13,1.58-4.34,3.21-5.84c1.62-1.5,3.59-1.97,5.4-2.29
		l0.77-1.78l-2,0.41l3.65-6.05l0.03-0.06L22.6,0H12.91z"/>
	<path fill="#71756C" d="M4.47,5.01l-0.02-0.1L3.77,1.22c-0.8,0.5-1.51,1.14-2.09,1.89l0.35,1.05l-1.8,5.12L0,9.86v5.53L2.58,9.8
		L4.47,5.01z"/>
	<path fill="#DDDDDD" d="M44.58,43.5c-0.13-2.68-2-5.21-4-7.89c-1.61-2.02-3-4.21-4.12-6.53c-1.99-4.53-1.29-8.32-0.73-11.32
		c0.22-1.03,0.37-2.07,0.45-3.12c0.25-4.62-2.19-7.25-3.92-7.57c-0.19-0.04-0.39-0.06-0.59-0.06c-1.28,0-2.37,0.76-3.9,2
		c-0.71,0.62-1.47,1.18-2.27,1.68c-1.26,0.62-2.61,1.01-4,1.17c-1.55,0.26-3.06,0.55-3.94,1.35c-0.88,0.8-1.5,2.51-2.1,4.17
		c-0.48,1.51-1.13,2.97-1.93,4.34c-1.66,2.65-4.82,6.19-7.23,7.65c-1.42,0.71-2.94,1.22-4.51,1.5c-0.6,0.12-1.2,0.27-1.79,0.44v0.73
		c0.67-0.2,1.34-0.37,2.03-0.5c1.64-0.29,3.23-0.83,4.71-1.58c2.5-1.51,5.75-5.19,7.46-7.87c0.83-1.42,1.5-2.92,2-4.48
		c0.54-1.5,1.16-3.21,1.91-3.9c1.07-0.7,2.3-1.11,3.58-1.18c1.49-0.17,2.93-0.59,4.27-1.25c0.82-0.49,1.59-1.05,2.32-1.67
		c1.36-1.1,2.34-1.83,3.34-1.89c0.04,0,0.08-0.01,0.13-0.01c0.15-0.01,0.31-0.01,0.46,0c1.29,0.24,3.59,2.49,3.35,6.84
		c-0.08,1.01-0.23,2.01-0.44,3c-0.58,3.12-1.3,7,0.78,11.73c0.33,0.72,0.7,1.42,1.08,2.11c0.64,1.16,1.35,2.28,2.12,3.36
		c0.3,0.43,0.61,0.85,0.93,1.26c0.97,1.31,1.91,2.57,2.63,3.82c0.7,1.23,1.18,2.45,1.24,3.69c0.02,0.35-0.05,0.74-0.19,1.17
		c-0.3,0.91-0.92,1.96-1.66,3.04c0.36-0.1,0.72-0.21,1.06-0.35C44,45.96,44.63,44.62,44.58,43.5z"/>
	<path fill="#DDDDDD" d="M43.94,33.1c-1.42-1.77-2.64-3.69-3.64-5.72c-0.21-0.47-0.37-0.93-0.51-1.37c-0.09-0.3-0.17-0.59-0.23-0.87
		c-0.1-0.46-0.17-0.9-0.2-1.34c-0.15-1.78,0.15-3.44,0.49-5.26c0.14-0.66,0.25-1.33,0.34-2c0.08-0.55,0.14-1.11,0.18-1.67
		c0.18-3.28-0.68-6.09-2.08-8.18c-0.04-0.06-0.08-0.11-0.12-0.17c-1.38-1.98-3.25-3.28-5.15-3.65c-0.45-0.08-0.91-0.13-1.37-0.13
		c-0.79,0-1.52,0.14-2.19,0.35c-1.74,0.56-3.13,1.67-4.31,2.65c-0.52,0.46-1.08,0.89-1.66,1.27c-0.85,0.36-1.74,0.6-2.66,0.69
		c-0.23,0.04-0.46,0.08-0.7,0.12c-1.82,0.32-3.78,0.79-5.4,2.29c-1.63,1.5-2.43,3.71-3.21,5.84c-0.38,1.21-0.88,2.38-1.49,3.49
		c-1.15,1.79-2.53,3.42-4.1,4.84c-0.56,0.51-1.14,1-1.75,1.46c-1.07,0.45-2.18,0.79-3.32,1C0.57,26.8,0.29,26.87,0,26.94v0.73
		c0.34-0.08,0.68-0.16,1.03-0.22c1.21-0.23,2.39-0.6,3.51-1.1c2.41-1.79,4.47-4,6.08-6.53c0.66-1.16,1.19-2.38,1.6-3.65
		c0.72-2.05,1.49-4.18,3-5.56c1.71-1.55,3.82-1.91,5.71-2.23c1-0.1,1.99-0.36,2.91-0.77c0.62-0.38,1.2-0.82,1.75-1.29
		c1.57-1.27,3.48-2.82,6.07-2.82c0.42,0,0.83,0.04,1.24,0.12c3.6,0.66,7.12,5.04,6.78,11.22c-0.09,1.2-0.26,2.4-0.51,3.58
		c-0.51,2.94-1.07,5.72,0.49,9.25c1.01,2.08,2.24,4.05,3.67,5.86c1.9,2.54,3.83,5.17,4.48,8.21C47.93,41.18,48,40.6,48,40.01v-0.17
		c-0.16-0.43-0.34-0.85-0.54-1.26C46.54,36.64,45.23,34.85,43.94,33.1z"/>
	<path fill="#FFFFFF" d="M43.33,33.52c-1.43-1.81-2.66-3.78-3.67-5.86c-1.56-3.53-1-6.31-0.49-9.25c0.25-1.18,0.42-2.38,0.51-3.58
		C40.02,8.65,36.5,4.27,32.9,3.61c-0.41-0.08-0.82-0.12-1.24-0.12c-2.59,0-4.5,1.55-6.07,2.82c-0.55,0.47-1.13,0.91-1.75,1.29
		c-0.92,0.41-1.91,0.67-2.91,0.77c-1.89,0.32-4,0.68-5.71,2.23c-1.51,1.38-2.28,3.51-3,5.56c-0.41,1.27-0.94,2.49-1.6,3.65
		c-1.61,2.53-3.67,4.74-6.08,6.53c-1.12,0.5-2.3,0.87-3.51,1.1C0.68,27.5,0.34,27.58,0,27.66v3.65c0.59-0.17,1.19-0.32,1.79-0.44
		c1.57-0.28,3.09-0.79,4.51-1.5c2.41-1.46,5.57-5,7.23-7.65c0.8-1.37,1.45-2.83,1.93-4.34c0.6-1.66,1.22-3.37,2.1-4.17
		c0.88-0.8,2.39-1.09,3.94-1.35c1.39-0.16,2.74-0.55,4-1.17c0.8-0.5,1.56-1.06,2.27-1.68c1.53-1.24,2.62-2,3.9-2
		c0.2,0,0.4,0.02,0.59,0.06c1.73,0.32,4.17,2.95,3.92,7.57c-0.08,1.05-0.23,2.09-0.45,3.12c-0.56,3-1.26,6.79,0.73,11.32
		c1.12,2.32,2.51,4.52,4.12,6.53c2,2.68,3.87,5.21,4,7.89c0.05,1.12-0.58,2.46-1.47,3.87c2.36-1,4.14-3.09,4.7-5.64
		C47.16,38.69,45.23,36.06,43.33,33.52z"/>
</g>
</svg>
