<?xml version="1.0" encoding="utf-8"?>
<!-- Generator: Adobe Illustrator 21.0.2, SVG Export Plug-In . SVG Version: 6.00 Build 0)  -->
<svg version="1.1" id="Layer_1" xmlns="http://www.w3.org/2000/svg" xmlns:xlink="http://www.w3.org/1999/xlink" x="0px" y="0px"
	 width="48px" height="48px" viewBox="0 0 48 48" enable-background="new 0 0 48 48" xml:space="preserve">
<title>Asset 1</title>
<g>
	<path fill="#DFDFDF" d="M31.58,48h8.41c0.88,0,1.72-0.15,2.52-0.41l-9.58-3.2L31.58,48z"/>
	<polygon fill="#DFDFDF" points="47.99,26.18 47.99,14.7 37.26,21 	"/>
	<polygon fill="#DFDFDF" points="22.34,11.03 18.76,0 18.76,0 	"/>
	<path fill="#DFDFDF" d="M16.98,12.99c0.05-0.03,0.1-0.08,0.15-0.11c1.15-0.71,2.37-1.22,3.61-1.54L17.08,0H8
		C4.04,0,0.77,2.87,0.12,6.65l12.54,5.09L16.98,12.99z"/>
	<path fill="#DFDFDF" d="M47.99,36.81l-10.44-5.03h-2.47c-1.95,2.95-4.99,5.01-8.48,5.69c-0.81,0.16-1.63,0.21-2.45,0.21l-0.62,1.7
		l21.07,7.15C46.65,45.08,48,42.7,48,40L47.99,36.81C48,36.81,47.99,36.81,47.99,36.81z"/>
	<path fill="#DFDFDF" d="M7.45,34h0.22l6.84,2.32l1.1-3c-2.96-2.79-4.37-6.86-3.76-10.88L9.1,20.59l-7.95-3.22L0,20.3v19.51L0.45,40
		L7.45,34z"/>
	<path fill="#84CA50" d="M7.7,34.88l-6.51,5.58l-0.72,2.22C1.57,45.78,4.52,48,8,48h2.22l4-10.9L7.7,34.88z"/>
	<polygon fill="#84CA50" points="23.25,40.16 20.39,48 30.76,48 32.53,43.31 	"/>
	<path fill="#EAEAEA" d="M23.25,40.16l9.29,3.15L30.76,48h0.82l1.35-3.61l9.58,3.2c0.75-0.25,1.45-0.61,2.09-1.06l-21.07-7.15
		L23.25,40.16z"/>
	<path fill="#EAEAEA" d="M7.7,34.88l6.53,2.22l0.28-0.77L7.67,34H7.45l-7,6L0,39.82V40c0,0.94,0.17,1.84,0.47,2.68l0.72-2.22
		L7.7,34.88z"/>
	<path fill="#EAEAEA" d="M15.39,14.19c0.5-0.44,1.03-0.85,1.59-1.2l-4.32-1.25L0.12,6.65C0.05,7.09,0,7.54,0,8v0.31l12.22,4.97
		L15.39,14.19z"/>
	<path fill="#EAEAEA" d="M36.2,21.94c0.05,0.13,0.05,0.26,0.05,0.39l11.74,5.68v-1.83L37.26,21l10.73-6.3v-0.97l-12.14,6.88
		C35.99,21.05,36.11,21.49,36.2,21.94z"/>
	<path fill="#EAEAEA" d="M31.61,13.26L47.03,4.2c-0.25-0.47-0.56-0.91-0.9-1.32l-16.1,9.46C30.58,12.61,31.11,12.92,31.61,13.26z"/>
	<path fill="#EAEAEA" d="M35.51,31.13c-0.13,0.23-0.28,0.43-0.43,0.65h2.47l10.44,5.03V35.9l-10.34-4.98L35.51,31.13z"/>
	<path fill="#EAEAEA" d="M1.15,17.38L9.1,20.6l2.75,1.85c0.07-0.44,0.16-0.89,0.28-1.32l-10.6-4.71L1.15,17.38z"/>
	<path fill="#EAEAEA" d="M16.78,34.31c-0.42-0.3-0.8-0.64-1.17-0.98l-1.1,3l-0.28,0.77l-4,10.9h1.66L16.78,34.31z"/>
	<path fill="#EAEAEA" d="M23.53,39.38l0.62-1.7c-0.28,0-0.56,0.02-0.84,0L19.5,48h0.89l2.86-7.84L23.53,39.38z"/>
	<path fill="#CAE6A3" d="M30.04,12.34l16.1-9.46C44.67,1.12,42.46,0,39.99,0H18.76l3.58,11.03C24.98,10.68,27.67,11.15,30.04,12.34z
		"/>
	<path fill="#84CA50" d="M14.11,15.48c0.4-0.46,0.82-0.89,1.28-1.29l-3.17-0.91L0,8.31v1.72l11.78,4.76L14.11,15.48z"/>
	<path fill="#84CA50" d="M18.71,34.09c-0.26-0.15-0.52-0.3-0.77-0.47c-3.91-2.67-5.66-7.46-4.55-11.94l-1.26-0.56
		c-0.12,0.44-0.21,0.88-0.28,1.32c-0.6,4.02,0.8,8.09,3.76,10.88c0.37,0.35,0.75,0.68,1.17,0.98L11.89,48h1.74L18.71,34.09z"/>
	<path fill="#84CA50" d="M36.2,21.94c-0.09-0.45-0.21-0.89-0.35-1.32l-1.15,0.65c0.21,0.75,0.35,1.53,0.39,2.32l12.9,6.22v-1.8
		l-11.74-5.68C36.25,22.2,36.25,22.07,36.2,21.94z"/>
	<path fill="#84CA50" d="M32.96,14.34L47.65,5.7c-0.16-0.52-0.36-1.02-0.62-1.5l-15.42,9.06C32.08,13.59,32.53,13.95,32.96,14.34z"
		/>
	<path fill="#FFFFFF" d="M22.34,11.03L18.76,0h-1.68l3.67,11.34C21.28,11.2,21.81,11.1,22.34,11.03z"/>
	<path fill="#FFFFFF" d="M14.11,15.48l-2.33-0.68L0,10.04v2.19l12.48,5.54C12.94,16.94,13.49,16.18,14.11,15.48z"/>
	<path fill="#FFFFFF" d="M21.22,34.17l1.29,0.21c1.16,0.19,2.35,0.17,3.5-0.05c3.08-0.6,5.71-2.61,7.1-5.43l0.39-0.78l4.74-0.48
		L48,32.36v-2.55l-12.9-6.22c-0.04-0.79-0.18-1.56-0.39-2.32l-0.7,0.4l-0.72-1.59c-1.07-2.4-3.04-4.29-5.48-5.26
		c-5.17-2.06-11.03,0.46-13.09,5.64L14.1,22l-0.71-0.32c-1.11,4.48,0.64,9.27,4.55,11.94c0.25,0.17,0.51,0.32,0.77,0.47L13.63,48
		h2.48L21.22,34.17z M16.75,25.74c-0.74-4.06,1.95-7.95,6.01-8.69s7.95,1.95,8.69,6.01c0.73,4.03-1.92,7.9-5.94,8.67
		C21.44,32.5,17.52,29.81,16.75,25.74z"/>
	<path fill="#FFFFFF" d="M35.37,17.22l12.62-7.15V8c0-0.8-0.12-1.57-0.34-2.3l-14.69,8.64C33.87,15.16,34.69,16.12,35.37,17.22z"/>
	<path fill="#CAE6A3" d="M25.5,31.74c4.02-0.77,6.67-4.64,5.94-8.67c-0.74-4.06-4.63-6.75-8.69-6.01s-6.75,4.63-6.01,8.69
		C17.52,29.81,21.44,32.5,25.5,31.74z"/>
	<path fill="#1E4702" d="M1.53,16.41l10.6,4.71l1.26,0.56L14.1,22l0.62-1.54c2.06-5.17,7.92-7.7,13.09-5.64
		c2.44,0.97,4.41,2.86,5.48,5.26L34,21.67l0.7-0.4l1.15-0.65l12.14-6.88v-3.66l-12.62,7.15c-0.68-1.1-1.5-2.06-2.41-2.88
		c-0.43-0.39-0.88-0.75-1.35-1.07c-0.5-0.35-1.03-0.65-1.57-0.92c-2.37-1.19-5.06-1.66-7.71-1.31l0,0c-0.53,0.07-1.06,0.17-1.59,0.3
		c-1.24,0.32-2.46,0.83-3.61,1.54c-0.05,0.03-0.1,0.07-0.15,0.11c-0.57,0.36-1.09,0.77-1.59,1.2c-0.46,0.4-0.88,0.83-1.28,1.29
		c-0.61,0.7-1.17,1.46-1.63,2.28L0,12.22v8.08l1.15-2.93L1.53,16.41z"/>
	<path fill="#1E4702" d="M23.32,37.68c0.28,0.02,0.56,0,0.84,0c0.82,0,1.64-0.05,2.45-0.21c3.49-0.68,6.54-2.74,8.48-5.69
		c0.14-0.22,0.29-0.42,0.43-0.65l2.14-0.21L48,35.9v-3.54l-9.76-4.72l-4.74,0.48l-0.4,0.78c-1.39,2.82-4.02,4.83-7.1,5.43
		c-1.15,0.22-2.34,0.24-3.5,0.05l-1.29-0.21L16.1,48h3.4L23.32,37.68z"/>
</g>
</svg>
