<?xml version="1.0" encoding="UTF-8"?>
<svg width="24px" height="24px" viewBox="0 0 24 24" version="1.1" xmlns="http://www.w3.org/2000/svg" xmlns:xlink="http://www.w3.org/1999/xlink">
    <!-- Generator: Sketch 49.3 (51167) - http://www.bohemiancoding.com/sketch -->
    <title>ic_commute_home</title>
    <desc>Created with Sketch.</desc>
    <defs></defs>
    <g id="ic_commute_home" stroke="none" stroke-width="1" fill="none" fill-rule="evenodd">
        <g>
            <polygon id="Shape" points="0 0 24 0 24 24 0 24"></polygon>
            <path d="M18,19.5 L22.5,19.5 L22.5,3.5 L11.5,3.5 L11.5,4.5989474 L10,3.59947365 L10,2 L24,2 L24,21 L18,21 L18,19.5 Z M16,7.59736864 L14,6.26473698 L14,6 L16,6 L16,7.59736864 Z M18,6 L20,6 L20,8 L18,8 L18,6 Z M18,10 L20,10 L20,12 L18,12 L18,10 Z M18,14 L20,14 L20,16 L18,16 L18,14 Z" id="Combined-Shape" fill="#AECBFA"></path>
            <path d="M8.5,5 L16,10 L16,21 L1,21 L1,10 L8.5,5 Z M11,19 L14,19 L14,11.0699997 L8.5,7.4000001 L3,11.0699997 L3,19 L6,19 L6,13.5 L11,13.5 L11,19 Z" id="Combined-Shape" fill="#1A73E8" fill-rule="nonzero"></path>
        </g>
    </g>
</svg>