<?xml version="1.0" encoding="utf-8"?>
<!-- Generator: Adobe Illustrator 21.0.2, SVG Export Plug-In . SVG Version: 6.00 Build 0)  -->
<svg version="1.1" id="Layer_1" xmlns="http://www.w3.org/2000/svg" xmlns:xlink="http://www.w3.org/1999/xlink" x="0px" y="0px"
	 width="48px" height="48px" viewBox="0 0 48 48" enable-background="new 0 0 48 48" xml:space="preserve">
<title>Asset 1</title>
<g>
	<polygon fill="#EBE8DE" points="22.51,18.33 22.28,19.13 22.25,19.56 21.62,21.96 21.38,21.96 21.38,23.17 20.93,24.23 
		19.43,26.75 18.75,28.04 18.44,28.46 16.76,29.6 16.49,29.65 15.87,29.57 14.48,29.04 13.92,28.9 13.32,28.9 11.96,29.16 
		11.15,29.43 9.71,30.05 9.35,30.36 9.02,31.06 8.88,32.03 8.91,32.94 8.79,33.24 8.76,33.75 8.59,33.83 8.52,33.77 8.38,33.77 
		8.34,34.08 8.71,34.42 8.59,35.26 8.6,35.85 8.45,35.99 8.45,36.2 8.56,36.37 8.38,36.49 8.38,36.65 8.71,36.73 8.79,36.82 
		8.73,37.19 8.8,37.5 9.15,37.52 9.3,37.68 9.3,37.89 9.3,38.27 9.5,38.5 9.85,38.73 9.69,38.59 9.72,37.89 9.73,37.89 9.99,31.39 
		17.24,30.65 20.72,26.25 21.38,24 21.38,23.99 21.97,21.96 21.94,21.96 22.75,19.19 22.81,18.77 23.15,16.61 22.88,16.56 	"/>
	<polygon fill="#EBE8DE" points="14.3,42.53 14.44,42.9 14.63,44.01 14.92,43 12.46,40.93 12.65,41.18 	"/>
	<polygon fill="#EBE8DE" points="11.14,39.9 12.03,40.68 12.42,40.9 11.51,40.13 10.46,39.25 10.47,39.26 	"/>
	<path fill="#DFDFDF" d="M48,40v-4.37l-1.72-2.14l-6.16-7.59l0.53-1.14l-0.89-0.5l1.96-1.46l-0.6-0.84h0.01l-1.15-1.6l7.21-5.17
		l0.7,0.98L48,16.08v-4l-3.36,2.76l-6.86,5.06l-4.26,3.32l0,0l-3.68,3.08l-4.8,3.66l-1.63,1.52l-1.03,1.25l-0.36,0.5l-0.08,0.12
		l-1.15,2.18l-0.52,1.42l-0.37,1.6l-0.15,0.96l-0.07,1.82l0.09,1.24l0.71,4.28l0.1,1.15H40C44.4,48,48,44.4,48,40z"/>
	<path fill="#DFDFDF" d="M17.52,43.21l-0.15-1.53c0-0.03,0-0.07,0-0.1l0.02-1.79c0-0.04,0-0.09,0.01-0.13l0.19-1.22
		c0-0.07-0.02-0.13-0.01-0.2l0.08-0.5l0.09-0.37l0.03-0.18c0.01-0.03,0.03-0.05,0.04-0.08l0.22-0.88c0.01-0.04,0.02-0.08,0.04-0.12
		l0.78-2.02c0.02-0.04,0.03-0.08,0.05-0.12l0.76-1.42l0.38-0.57c0.01-0.02,0.01-0.04,0.02-0.05l0.49-0.71l0,0l0,0l0.01-0.01
		l0.01-0.01c0.02-0.02,0.03-0.05,0.05-0.07l0.5-0.59c0.01-0.01,0.02-0.01,0.02-0.02l0.57-0.68l1.09-1.07l8.87-7.05
		c0.02-0.01,0.02-0.04,0.04-0.05l0.07-0.06l-4.59-2.2l-0.31-0.22l-0.14-0.23l-0.14-0.48l0.02-0.12l0.25-0.62l-1.54-0.78l-2.18-0.36
		l-0.34,2.16l-0.06,0.42l-0.81,2.77h0.03l-0.59,2.03V24l-0.65,2.25l-3.49,4.4L10,31.38l-0.26,6.51l0,0l-0.03,0.7l0.16,0.14
		l0.57,0.38l0.04,0.14l1.05,0.89l0.91,0.77l0.02,0.01l0.01,0.02L14.92,43l-0.29,1.02l0.18,1.01l0.09,1.73l-0.09,0.4L14.43,48h3.81
		l-0.02-0.45L17.52,43.21z"/>
	<polygon fill="#DFDFDF" points="41.47,13.91 41.7,14.19 42.55,13.57 45.79,10.94 48,9.02 48,8.18 46.26,9.73 	"/>
	<path fill="#CBE6A3" d="M20.14,0.33l0.4,0.42l0.14,0.34l0.04,0.47l-0.09,0.42L20.6,2.74l-0.12,0.75l0.08,2.12l-0.1,0.1l-0.5,0.1
		l-0.32,0.12l-0.05,0.1l-0.05,0.1v0.32l0.1,0.19l0.06,0.5l0.36,0.43l0.02,0.28l0.53,0.46l0.08,0.14l0.04,0.93l0.08,0.16l0.02,0.34
		l0.26,1.1l0.29,0.44V11.4l0.05,0.07l0.4,0.33l0.64,0.19l0.28,0.14l0.08,0.11v0.3l0.14,0.36l0.39,0.64l0.02,0.25l-0.23,0.98
		L23,15.55l-0.03,0.58l-0.09,0.44l0.28,0.05l2.18,0.36l1.54,0.78l-0.25,0.62l-0.02,0.12l0.14,0.48l0.14,0.23l0.31,0.22l4.59,2.2
		l0.58-0.45l0.28-0.21L33,20.69c0.01-0.01,0.02-0.01,0.03-0.01l3.17-2.44c0.01-0.01,0.02-0.02,0.03-0.03l0.32-0.24l0.66-0.51
		c0.03-0.03,0.07-0.03,0.11-0.05l4.39-3.19l-0.23-0.28l4.79-4.19L48,8.18V8c0-0.66-0.09-1.29-0.24-1.9l-0.15,0.02l-0.99-0.04
		c-0.07,0-0.13-0.04-0.18-0.09l-0.26-0.31c-0.02-0.02-0.03-0.04-0.04-0.07l-0.41-0.98l-1.74-1.24L43.4,3.24l-3.9,0.23l-1.08,0.26
		l-1,0.96l-1.36,1.62l0,0L35.2,7.37l-1.67,1.32l-0.31,1.33l-0.38,1.1l-0.05,0.62c0,0.04-0.02,0.08-0.04,0.12l-0.12,0.19
		c-0.01,0.02-0.03,0.04-0.05,0.05l-2.8,2.37c-0.02,0.02-0.05,0.03-0.08,0.04l-0.64,0.23l-0.17,0.15c-0.03,0.03-0.07,0.05-0.11,0.06
		l-0.37,0.08l-1.14,0.64c-0.02,0.01-0.04,0.02-0.07,0.03l-0.83,0.19c-0.02,0-0.04,0.01-0.05,0.01s-0.01,0-0.02,0l-0.34-0.03
		c-0.04,0-0.07-0.01-0.1-0.03l-1.85-1.09c-0.12-0.07-0.16-0.22-0.09-0.34s0.22-0.16,0.34-0.09l1.8,1.06l0.25,0.02l0.75-0.17
		l1.13-0.64c0.02-0.01,0.04-0.02,0.07-0.03l0.34-0.08l0.15-0.14c0.02-0.02,0.05-0.04,0.08-0.05l0.64-0.23l2.74-2.31l0.07-0.1
		l0.06-0.62l0.39-1.13l0.32-1.39c0.01-0.06,0.04-0.1,0.09-0.14l1.7-1.34l1.01-1.26c0.01-0.01,0.02-0.01,0.02-0.01l1.1-1.29
		c0.01-0.02,0.01-0.03,0.02-0.05l0.12-0.13l0.06-0.06l0.06-0.07c0.01-0.01,0.02-0.01,0.03-0.01l0.85-0.8
		c0.03-0.03,0.07-0.05,0.11-0.06l1.18-0.28l3.98-0.24c0.03,0,0.05,0,0.08,0.01l0.67,0.17c0.03,0.01,0.06,0.02,0.08,0.04l1.84,1.31
		c0.04,0.03,0.07,0.06,0.08,0.11l0.42,1.01l0.17,0.2l0.84,0.04h0.04C46.61,2.37,43.57,0,40,0H20.01L20,0.07L20.14,0.33z"/>
	<polygon fill="#CBE6A3" points="47.18,15.19 39.98,20.35 41.12,21.96 41.11,21.96 41.72,22.8 39.76,24.26 40.64,24.76 40.12,25.9 
		46.28,33.49 48,35.63 48,16.08 47.88,16.17 	"/>
	<path fill="#A3CCFF" d="M14.9,46.75l-0.09-1.73l-0.18-1.01l-0.2-1.11l-0.14-0.37l-1.65-1.35l-0.19-0.25l-0.01-0.02l-0.02-0.01
		l-0.4-0.22l-0.89-0.78l-0.67-0.64v-0.01l-0.04-0.14l-0.57-0.38L9.5,38.5l-0.2-0.23V37.9v-0.22l-0.16-0.16L8.8,37.5l-0.08-0.31
		l0.06-0.37L8.7,36.73l-0.33-0.08v-0.16l0.17-0.12L8.43,36.2V36l0.16-0.14l-0.02-0.59l0.12-0.84l-0.37-0.34l0.05-0.31h0.14
		l0.06,0.06l0.17-0.08l0.03-0.51l0.12-0.3l-0.03-0.92L9,31.07l0.33-0.7l0.36-0.31l1.45-0.62l0.81-0.26l1.35-0.26h0.61l0.56,0.14
		l1.39,0.53l0.62,0.08l0.26-0.05l1.68-1.14l0.31-0.42l0.68-1.29l1.49-2.52l0.45-1.06v-1.21h0.24l0.63-2.4l0.03-0.44l0.23-0.79
		l0.36-1.77l0.09-0.44L23,15.55l0.14-0.79l0.23-0.98l-0.02-0.25l-0.39-0.64l-0.14-0.36v-0.3l-0.08-0.11l-0.28-0.14l-0.64-0.19
		l-0.4-0.33l-0.05-0.07v0.01l-0.29-0.44l-0.26-1.1L20.8,9.52l-0.08-0.16l-0.04-0.93L20.6,8.29l-0.53-0.46l-0.02-0.28l-0.36-0.43
		l-0.06-0.5l-0.1-0.19V6.11l0.05-0.1l0.05-0.1l0.32-0.12l0.5-0.1l0.1-0.1l-0.08-2.12l0.12-0.75l0.02-0.76l0.09-0.42l-0.04-0.47
		l-0.14-0.34l-0.4-0.42L20,0.07L20.01,0H8C3.6,0,0,3.6,0,8v32c0,4.4,3.6,8,8,8h6.43l0.38-0.85L14.9,46.75z M20.14,8.36l0.2,0.16
		l-0.02,0.16l-0.24,0.19l-0.52,0.04l-0.28-0.14l-0.57-0.08l-0.28-0.16l0.02-0.26l0.1-0.08l0.66-0.02L20.14,8.36z M10.58,28.14
		l0.14-0.09l0.44-0.08l0.34,0.16l0.03,0.22l-0.17,0.25l-0.2-0.05l-0.19,0.05l-0.39-0.22V28.14z M9.12,28.74l0.34-0.03l0.17,0.14
		l0.02,0.34l-0.14,0.23L9.2,29.5l-0.28-0.2l-0.05-0.42L9.12,28.74z M5.99,30.61L6.1,30.5l0.26-0.09l0.08,0.05l0.05,0.22l-0.16,0.17
		l-0.25,0.08l-0.09-0.12V30.61z M6.52,31.02l0.09,0.08v0.47H6.38l-0.14-0.16l0.03-0.26l0.16-0.12h0.09V31.02z M5.77,31.48
		l-0.02,0.33L5.7,31.89l-0.26,0.07l0,0l-0.02,0.01l-0.14-0.16l-0.02-0.16l0.16-0.18l0.02-0.01v0.01l0.17-0.06L5.77,31.48L5.77,31.48
		z M6.66,38.7l-0.14,0.14h-0.2l-0.4-0.34l0.05-0.17l0.09-0.06l0.2,0.02l0.4,0.2V38.7z M6.78,30.11l-0.22,0.08l-0.3-0.12l-0.05-0.19
		l0.06-0.16l0.28-0.05l0.26,0.25L6.78,30.11z M7.7,32.98l-0.23,0.03l-0.08-0.09v-0.26l0.23-0.08l0.14,0.3L7.7,32.98z"/>
	<polygon fill="#CBE6A3" points="18.56,8.18 18.46,8.26 18.44,8.52 18.72,8.68 19.29,8.76 19.57,8.9 20.09,8.86 20.33,8.68 
		20.34,8.52 20.14,8.36 19.22,8.15 	"/>
	<path fill="#A3CCFF" d="M37.26,4.13L37.2,4.2l0.09-0.09C37.28,4.13,37.27,4.12,37.26,4.13z"/>
	<path fill="#A3CCFF" d="M37.02,4.75c-0.09-0.08-0.09-0.21-0.03-0.3l-1.1,1.29c0.09-0.09,0.22-0.11,0.32-0.04
		c0.11,0.08,0.13,0.24,0.05,0.35l-0.09,0.12L36.06,6.3l0,0l1.36-1.62l-0.06,0.06C37.28,4.84,37.12,4.84,37.02,4.75z"/>
	<path fill="#A3CCFF" d="M35.72,6.34c-0.11-0.09-0.12-0.24-0.04-0.35l0.1-0.12l0.11-0.13c-0.01,0.01-0.02,0.01-0.02,0.01l-1.01,1.26
		l-1.7,1.34c-0.04,0.04-0.08,0.08-0.09,0.14l-0.32,1.39l-0.39,1.13l-0.06,0.62l-0.07,0.1l-2.74,2.31l-0.64,0.23
		c-0.03,0.01-0.06,0.03-0.08,0.05l-0.15,0.14l-0.34,0.08c-0.02,0.01-0.05,0.01-0.07,0.03l-1.13,0.64l-0.75,0.17l-0.25-0.02
		l-1.8-1.06c-0.12-0.07-0.27-0.03-0.34,0.09s-0.03,0.27,0.09,0.34l1.85,1.09c0.03,0.02,0.07,0.03,0.1,0.03l0.34,0.03
		c0.01,0,0.01,0,0.02,0c0.02,0,0.04,0,0.05-0.01l0.83-0.19c0.02-0.01,0.05-0.01,0.07-0.03l1.14-0.64l0.37-0.08
		c0.04-0.01,0.08-0.03,0.11-0.06l0.17-0.15l0.64-0.23c0.03-0.01,0.05-0.03,0.08-0.04l2.8-2.37c0.02-0.02,0.03-0.03,0.05-0.05
		l0.12-0.19c0.02-0.03,0.04-0.07,0.04-0.12l0.05-0.62l0.38-1.1l0.31-1.33l1.67-1.32l0.86-1.06c-0.05,0.06-0.12,0.09-0.19,0.09
		C35.82,6.4,35.77,6.38,35.72,6.34z"/>
	<path fill="#A3CCFF" d="M36.27,6.05c0.08-0.11,0.06-0.27-0.05-0.35c-0.1-0.08-0.24-0.05-0.32,0.04l-0.11,0.13l-0.1,0.12
		c-0.09,0.11-0.07,0.26,0.04,0.35c0.05,0.04,0.1,0.05,0.16,0.05c0.07,0,0.14-0.03,0.19-0.09l0.11-0.13L36.27,6.05z"/>
	<path fill="#A3CCFF" d="M37.13,4.27L37.01,4.4C37,4.41,37,4.43,36.99,4.45l0.21-0.24L37.13,4.27z"/>
	<path fill="#A3CCFF" d="M46.76,5.58l-0.17-0.2l-0.42-1.01c-0.02-0.04-0.05-0.08-0.08-0.11l-1.84-1.31
		c-0.03-0.02-0.05-0.03-0.08-0.04L43.5,2.74c-0.03-0.01-0.05-0.01-0.08-0.01l-3.98,0.24l-1.18,0.28c-0.04,0.01-0.08,0.03-0.11,0.06
		l-0.85,0.8c0.1-0.08,0.23-0.08,0.32,0c0.1,0.09,0.1,0.25,0.01,0.35l-0.12,0.13l-0.07,0.08l1-0.96l1.08-0.26l3.9-0.23l0.59,0.15
		l1.74,1.24l0.41,0.98c0.01,0.02,0.02,0.05,0.04,0.07l0.26,0.31c0.04,0.05,0.11,0.08,0.18,0.09l0.99,0.04l0.15-0.02
		c-0.04-0.16-0.08-0.33-0.13-0.48h-0.04L46.76,5.58z"/>
	<path fill="#A3CCFF" d="M37.62,4.47c0.09-0.1,0.09-0.26-0.01-0.35c-0.09-0.09-0.23-0.08-0.32,0L37.2,4.21l-0.21,0.24
		c-0.06,0.1-0.06,0.22,0.03,0.3c0.1,0.09,0.26,0.09,0.35-0.01l0.06-0.06L37.5,4.6L37.62,4.47z"/>
	<path fill="#FFF1B9" d="M19.76,42.54l-0.09-1.24l0.07-1.82l0.15-0.96l0.37-1.6l0.52-1.42l1.15-2.18l0.08-0.12l0.36-0.5l1.03-1.25
		l1.63-1.52l4.8-3.66l3.68-3.08l0,0l4.26-3.32l6.86-5.06L48,12.08V9.02l-2.21,1.92l-3.24,2.63l-0.85,0.62l-4.39,3.19
		c-0.04,0.02-0.08,0.03-0.11,0.05l-0.66,0.51l-0.32,0.24c-0.01,0.01-0.02,0.02-0.03,0.03l-3.17,2.44c-0.01,0.01-0.02,0.01-0.03,0.01
		l-0.35,0.28l-0.28,0.21l-0.58,0.45l-0.07,0.06c-0.02,0.01-0.03,0.03-0.04,0.05l-8.87,7.05l-1.09,1.07l-0.57,0.68
		c-0.01,0.01-0.02,0.01-0.02,0.02l-0.5,0.59c-0.02,0.02-0.03,0.04-0.05,0.07l-0.01,0.01l-0.01,0.01l0,0l0,0l-0.49,0.71
		c-0.01,0.02-0.01,0.03-0.02,0.05l-0.38,0.57l-0.76,1.42c-0.02,0.04-0.04,0.08-0.05,0.12l-0.78,2.02c-0.01,0.04-0.03,0.08-0.04,0.12
		l-0.22,0.88c-0.01,0.03-0.03,0.05-0.04,0.08l-0.03,0.18l-0.09,0.37l-0.08,0.5c-0.01,0.07,0,0.13,0.01,0.2l-0.19,1.22
		c-0.01,0.04-0.01,0.09-0.01,0.13l-0.02,1.79c0,0.03,0,0.07,0,0.1l0.15,1.53l0.71,4.35L18.24,48h2.34l-0.12-1.18L19.76,42.54z"/>
	<polygon fill="#EBE8DE" points="5.44,31.45 5.42,31.46 5.26,31.64 5.28,31.8 5.42,31.96 5.44,31.96 5.44,31.46 	"/>
	<polygon fill="#EBE8DE" points="11.15,28.54 11.36,28.59 11.53,28.34 11.5,28.12 11.15,27.96 10.72,28.04 10.58,28.14 10.58,28.37 
		10.97,28.59 	"/>
	<polygon fill="#EBE8DE" points="9.19,29.51 9.5,29.43 9.64,29.19 9.63,28.85 9.46,28.71 9.12,28.74 8.87,28.88 8.91,29.3 	"/>
	<polygon fill="#EBE8DE" points="7.39,32.65 7.39,32.91 7.47,33.01 7.7,32.98 7.76,32.87 7.62,32.57 	"/>
	<polygon fill="#EBE8DE" points="6.24,31.4 6.38,31.56 6.61,31.56 6.61,31.09 6.52,31.02 6.42,31.02 6.27,31.14 	"/>
	<polygon fill="#EBE8DE" points="6.28,29.72 6.22,29.88 6.27,30.07 6.56,30.19 6.78,30.11 6.83,29.93 6.56,29.68 	"/>
	<polygon fill="#EBE8DE" points="6.33,30.84 6.49,30.67 6.44,30.45 6.36,30.41 6.1,30.5 5.99,30.61 5.99,30.8 6.08,30.92 	"/>
	<polygon fill="#EBE8DE" points="5.44,31.46 5.44,31.96 5.44,31.96 5.71,31.89 5.75,31.81 5.77,31.48 5.77,31.48 5.61,31.4 	"/>
	<polygon fill="#EBE8DE" points="6.05,38.27 5.96,38.33 5.91,38.5 6.31,38.84 6.52,38.84 6.66,38.7 6.66,38.48 6.25,38.28 	"/>
</g>
</svg>
