<?xml version="1.0" encoding="utf-8"?>
<!-- Generator: Adobe Illustrator 22.0.1, SVG Export Plug-In . SVG Version: 6.00 Build 0)  -->
<svg version="1.1" id="Layer_1" xmlns="http://www.w3.org/2000/svg" xmlns:xlink="http://www.w3.org/1999/xlink" x="0px" y="0px"
	 width="24px" height="24px" viewBox="0 0 24 24" enable-background="new 0 0 24 24" xml:space="preserve">
<path d="M6,13.5C6,12.67,6.67,12,7.5,12S9,12.67,9,13.5C9,14.33,8.33,15,7.5,15S6,14.33,6,13.5z M15,13.5c0-0.83,0.67-1.5,1.5-1.5
	s1.5,0.67,1.5,1.5c0,0.83-0.67,1.5-1.5,1.5S15,14.33,15,13.5z M5,9h14V6c0-1.1-0.9-2-2-2H7C5.9,4,5,4.9,5,6V9z M5,11v5h14v-5H5z
	 M5.49,18H5c-1.1,0-2-0.9-2-2V6c0-2.21,1.79-4,4-4h10c2.21,0,4,1.79,4,4v10c0,1.1-0.9,2-2,2h-0.41l1.11,1.04
	c0.4,0.38,0.43,1.01,0.05,1.41c-0.38,0.4-1.01,0.43-1.41,0.05l-2.58-2.4c-0.03-0.03-0.06-0.06-0.09-0.1H8.41
	c-0.03,0.03-0.06,0.07-0.09,0.1l-2.58,2.4c-0.4,0.38-1.04,0.35-1.41-0.05c-0.38-0.4-0.35-1.04,0.05-1.41L5.49,18z"/>
</svg>
