<?xml version="1.0" encoding="utf-8"?>
<!-- Generator: Adobe Illustrator 22.0.1, SVG Export Plug-In . SVG Version: 6.00 Build 0)  -->
<svg version="1.1" id="Layer_1" xmlns="http://www.w3.org/2000/svg" xmlns:xlink="http://www.w3.org/1999/xlink" x="0px" y="0px"
	 width="36px" height="34px" viewBox="0 0 36 34" enable-background="new 0 0 36 34" xml:space="preserve">
<path fill="#3C4043" d="M22,23.33c-1.1,0-2-0.9-2-2c0-1.1,0.9-2,2-2s2,0.9,2,2C24,22.44,23.1,23.33,22,23.33z M10,23.33
	c-1.1,0-2-0.9-2-2c0-1.1,0.9-2,2-2s2,0.9,2,2C12,22.44,11.1,23.33,10,23.33z M25.33,24.67V18H6.67v6.67H25.33z M27.64,16.96L28,18
	v10.67C28,29.4,27.4,30,26.67,30h-1.33C24.6,30,24,29.4,24,28.67v-1.33H8v1.33C8,29.4,7.4,30,6.67,30H5.33C4.6,30,4,29.4,4,28.67V18
	l2.77-7.99c0.28-0.79,1.01-1.35,1.89-1.35h10.4c0.11,0.94,0.37,1.83,0.73,2.67H9.13l-1.44,4.15h15.65
	C24.6,16.29,26.07,16.82,27.64,16.96z"/>
<path fill="#34A853" d="M27.23,9l-2.48-2.48l1.05-1.05l1.43,1.42l3.98-3.98l1.05,1.05L27.23,9z M32.25,12h-7.5v-1.5h7.5V12z M28.5,0
	C24.38,0,21,3.38,21,7.5s3.38,7.5,7.5,7.5S36,11.62,36,7.5S32.62,0,28.5,0z"/>
</svg>
