<?xml version="1.0" encoding="utf-8"?>
<!-- Generator: Adobe Illustrator 22.0.1, SVG Export Plug-In . SVG Version: 6.00 Build 0)  -->
<svg version="1.1" id="Layer_1" xmlns="http://www.w3.org/2000/svg" xmlns:xlink="http://www.w3.org/1999/xlink" x="0px" y="0px"
	 width="36px" height="34px" viewBox="0 0 36 34" enable-background="new 0 0 36 34" xml:space="preserve">
<path fill="#3C4043" d="M20.67,23.33c-1.1,0-2-0.9-2-2c0-1.1,0.9-2,2-2s2,0.9,2,2C22.67,22.44,21.77,23.33,20.67,23.33z
	 M11.33,23.33c-1.1,0-2-0.9-2-2c0-1.1,0.9-2,2-2s2,0.9,2,2C13.33,22.44,12.44,23.33,11.33,23.33z M22,24.67c1.11,0,2-0.89,2-2V18H8
	v4.67c0,1.11,0.89,2,2,2H22z M14.67,10H8v5.33h6.67V10z M19.4,4.78C19.14,5.64,19,6.55,19,7.5c0,0.87,0.12,1.7,0.33,2.5h-2v5.33
	h5.79c1.05,0.72,2.25,1.24,3.54,1.49v5.84c0,2.57-2.09,4.67-4.67,4.67l2,1.33V30H8v-1.33l2-1.33c-2.57,0-4.67-2.09-4.67-4.67V10
	c0-4.67,5.33-5.33,10.67-5.33C17.19,4.67,18.33,4.69,19.4,4.78z"/>
<path fill="#34A853" d="M27.23,9l-2.48-2.48l1.05-1.05l1.43,1.42l3.98-3.98l1.05,1.05L27.23,9z M32.25,12h-7.5v-1.5h7.5V12z M28.5,0
	C24.38,0,21,3.38,21,7.5s3.38,7.5,7.5,7.5S36,11.62,36,7.5S32.62,0,28.5,0z"/>
</svg>
