<svg id="GM_Material" data-name="GM Material" xmlns="http://www.w3.org/2000/svg" width="24" height="24" viewBox="0 0 24 24">
  <title>ic_mod_commute_home_work</title>
  <path d="M0,0H24V24H0Z" fill="none"/>
  <path d="M8.293,8.649,2,12.807V22H14.586V12.835ZM12.994,20.3591H10.482V15.707H6.1v4.652H3.642V13.71l4.651-3.064,4.651,3.092Z"/>
  <g>
    <rect id="Window_6" data-name="Window 6" x="17.075" y="16.255" width="1.642" height="1.642"/>
    <rect id="Window_5" data-name="Window 5" x="17.075" y="12.972" width="1.642" height="1.642"/>
    <rect id="Window_4" data-name="Window 4" x="17.075" y="9.689" width="1.642" height="1.642"/>
    <polygon id="Window_3" data-name="Window 3" points="15.434 9.688 13.792 9.688 13.792 10.308 15.434 11.401 15.434 9.688"/>
    <rect id="Window_2" data-name="Window 2" x="17.075" y="6.405" width="1.642" height="1.642"/>
    <rect id="Window_1" data-name="Window 1" x="13.792" y="6.405" width="1.642" height="1.642"/>
    <polygon id="Building" points="10.235 3 10.235 7.942 11.603 8.852 11.603 4.368 20.632 4.368 20.632 20.632 16.228 20.632 16.228 22 22 22 22 3 10.235 3"/>
  </g>
</svg>
