<?xml version="1.0" encoding="utf-8"?>
<!-- Generator: Adobe Illustrator 21.0.2, SVG Export Plug-In . SVG Version: 6.00 Build 0)  -->
<svg version="1.1" id="Layer_1" xmlns="http://www.w3.org/2000/svg" xmlns:xlink="http://www.w3.org/1999/xlink" x="0px" y="0px"
	 width="48px" height="48px" viewBox="0 0 48 48" enable-background="new 0 0 48 48" xml:space="preserve">
<title>Asset 1</title>
<g>
	<path fill="#DBDBDB" d="M48,29.95L29.14,45.76l0.47,0.57L28.9,46.9l-0.45-0.56L26.46,48H40c4.4,0,8-3.6,8-8V29.95z"/>
	<polygon fill="#DBDBDB" points="22.52,0 8.31,0 13.56,4.19 	"/>
	<path fill="#DBDBDB" d="M0,35.36V40c0,0.26,0.01,0.52,0.04,0.77l1.5-6.13L0,35.36z"/>
	<path fill="#DBDBDB" d="M27.44,45.08l0.71-0.57l0.43,0.54L48,28.77V17.69L30.51,25.7v0.62c-0.02,1.13-0.71,2.14-1.77,2.54
		l-5.63,2.15c-0.22,0.08-0.45,0.15-0.68,0.19c-0.01,0-0.02,0-0.03,0c-0.44,0.08-0.89,0.08-1.32,0c-0.22-0.04-0.44-0.1-0.65-0.17
		l-0.86-0.32l-2.05,0.94L13.54,48h11.5l2.84-2.36L27.44,45.08z"/>
	<polygon fill="#DBDBDB" points="3.86,25.11 0,26.85 0,27.37 3.74,25.58 	"/>
	<polygon fill="#DBDBDB" points="3.05,28.44 0,29.9 0,32.84 2.23,31.8 	"/>
	<path fill="#DBDBDB" d="M5.18,0.52C2.16,1.67,0,4.59,0,8v2.53l11.44-5.35L5.18,0.52z"/>
	<polygon fill="#DBDBDB" points="27.91,0 0,13.04 0,15.16 33.52,0 	"/>
	<path fill="#F6F3EE" d="M22.52,0l-8.95,4.19L8.31,0H8C7.01,0,6.06,0.19,5.18,0.52l6.26,4.66L0,10.53v2.51L27.91,0H22.52z"/>
	<polygon fill="#F6F3EE" points="2.23,31.8 0,32.84 0,35.36 1.53,34.64 	"/>
	<polygon fill="#F6F3EE" points="3.74,25.58 0,27.37 0,29.9 3.05,28.44 	"/>
	<path fill="#CBE6A3" d="M3.97,24.65c0.53-2.2,2.05-4.05,4.11-4.99l4.7-2.15v-2.02c0-1.13,0.91-2.05,2.05-2.05h0.02h6.8L45.71,2.41
		C44.25,0.93,42.23,0,40,0h-6.48L0,15.16v11.7l3.86-1.74L3.97,24.65z"/>
	<polygon fill="#FFFFFF" points="19.57,30.72 17.76,30.04 16.63,30.56 12.39,48 13.54,48 17.52,31.66 	"/>
	<polygon fill="#FFFFFF" points="30.51,21.19 48,13.18 48,12.27 30.51,20.29 	"/>
	<path fill="#FFFFFF" d="M29.69,13.86c0.2,0.15,0.38,0.34,0.51,0.56l17.63-8.08c-0.05-0.24-0.11-0.48-0.18-0.71l-13.63,6.25
		L29.69,13.86z"/>
	<path fill="#FFFFFF" d="M13.47,28.1l-0.11,0.05L8.54,48h1.03l4.7-19.28C13.96,28.56,13.69,28.35,13.47,28.1z"/>
	<polygon fill="#FFFFFF" points="30.51,25.71 48,17.69 48,16.18 30.51,24.2 	"/>
	<path fill="#FFFFFF" d="M8.68,24.28l4.09-1.88v-0.79l-4.74,2.17L6.7,29.27L2.64,45.91c0.21,0.19,0.42,0.36,0.65,0.53L8.68,24.28z"
		/>
	<path fill="#FFFFFF" d="M5.52,22.48l0.76-0.91l6.49-2.98v-1.08l-4.7,2.15c-2.06,0.95-3.58,2.79-4.11,4.99l-0.11,0.46l-0.11,0.47
		l-0.7,2.86L2.23,31.8l-0.69,2.84l-1.5,6.13c0.07,0.75,0.25,1.46,0.52,2.13L5.52,22.48z"/>
	<path fill="#FFFFFF" d="M24,13.44L46.37,3.19c-0.21-0.27-0.42-0.53-0.66-0.78L21.64,13.44H24z"/>
	<path fill="#FFF39F" d="M30.51,15.49v4.8L48,12.27V8c0-0.57-0.06-1.12-0.18-1.66L30.2,14.42C30.39,14.73,30.51,15.1,30.51,15.49z"
		/>
	<path fill="#FFF39F" d="M13.47,28.1c-0.44-0.49-0.7-1.12-0.7-1.81V22.4l-4.09,1.88l-5.4,22.16C4.61,47.42,6.24,48,8,48h0.54
		l4.82-19.85L13.47,28.1z"/>
	<polygon fill="#E60000" points="4.02,28.68 5.52,22.48 0.56,42.91 0.56,42.91 	"/>
	<path fill="#E60000" d="M12.77,18.59l-6.49,2.98L12.77,18.59z"/>
	<polygon fill="#E60000" points="24.01,13.44 32.91,9.37 46.38,3.2 46.37,3.19 24,13.44 	"/>
	<polygon fill="#84CA50" points="30.51,24.2 48,16.18 48,13.18 30.51,21.19 	"/>
	<path fill="#84CA50" d="M17.76,30.04l-3.2-1.19c-0.1-0.04-0.19-0.09-0.29-0.13L9.57,48h2.82l4.24-17.44L17.76,30.04z"/>
	<polygon fill="#BABABA" points="28.89,46.91 29.61,46.34 29.14,45.76 48,29.95 48,28.77 28.58,45.05 28.15,44.51 27.44,45.08 
		27.89,45.64 25.05,48 26.46,48 28.44,46.35 	"/>
	<path fill="#FFB000" d="M34.01,11.88l13.63-6.25c-0.28-0.89-0.71-1.7-1.26-2.43L32.91,9.37L34.01,11.88z"/>
	<path fill="#9E1313" d="M6.7,29.27l-2.68-0.59L0.56,42.91c0.46,1.16,1.17,2.18,2.08,3.01L6.7,29.27z"/>
	<polygon fill="#FF2E2E" points="12.77,18.59 6.28,21.57 5.52,22.48 4.02,28.68 6.7,29.27 8.03,23.78 12.77,21.61 	"/>
	<path fill="#FF2E2E" d="M28.46,13.44c0.46,0,0.88,0.16,1.23,0.42l4.32-1.98l-1.1-2.51l-8.9,4.08h4.43h0.02V13.44z"/>
	<path fill="#FFDC34" d="M21.08,31.21c0.44,0.08,0.89,0.08,1.32,0c-0.22,0.04-0.43,0.06-0.66,0.06
		C21.52,31.27,21.3,31.25,21.08,31.21z"/>
	<path fill="#FFDC34" d="M29.34,26.33V15.49c0-0.5-0.4-0.9-0.9-0.9H14.82c-0.5,0-0.9,0.4-0.9,0.9v10.8c0,0.67,0.42,1.26,1.04,1.49
		l5.87,2.19c0.29,0.11,0.6,0.17,0.91,0.17c0.33,0,0.64-0.05,0.95-0.17l5.63-2.15C28.94,27.57,29.34,26.98,29.34,26.33z"/>
	<path fill="#FFDC34" d="M30.51,21.19v-0.9v-4.8c0-0.39-0.12-0.76-0.31-1.07c-0.13-0.22-0.31-0.41-0.51-0.56
		c-0.34-0.26-0.76-0.42-1.23-0.42h-0.02c1.13,0,2.05,0.91,2.03,2.05v10.83c0,1.13-0.7,2.14-1.75,2.54l-5.63,2.15
		c-0.22,0.09-0.44,0.15-0.66,0.19c0.23-0.04,0.46-0.1,0.68-0.19l5.63-2.15c1.05-0.4,1.75-1.41,1.77-2.54V25.7v-1.5V21.19z"/>
	<path fill="#E4B834" d="M28.72,28.87c1.05-0.4,1.75-1.41,1.75-2.54V15.49c0.02-1.13-0.9-2.05-2.03-2.05h-4.43H24h-2.36h-6.8h-0.02
		c-1.13,0-2.05,0.91-2.05,2.05v2.02v1.08l0,0v3.02v0.79v3.89c0,0.69,0.26,1.32,0.7,1.81c0.22,0.25,0.49,0.46,0.8,0.61
		c0.09,0.05,0.19,0.1,0.29,0.13l3.2,1.19l1.81,0.67l0.86,0.32c0.21,0.08,0.43,0.14,0.65,0.17c0.22,0.04,0.44,0.06,0.67,0.06
		c0.22,0,0.44-0.02,0.66-0.06c0.01,0,0.02,0,0.03,0c0.22-0.04,0.44-0.1,0.66-0.19L28.72,28.87z M21.75,30.14
		c-0.31,0-0.62-0.06-0.91-0.17l-5.87-2.19c-0.62-0.23-1.04-0.82-1.04-1.49v-10.8c0-0.5,0.4-0.9,0.9-0.9h13.62c0.5,0,0.9,0.4,0.9,0.9
		v10.83c0,0.65-0.4,1.24-1.02,1.49l-5.63,2.15C22.38,30.09,22.07,30.14,21.75,30.14z"/>
</g>
</svg>
